<svg xmlns="http://www.w3.org/2000/svg" xmlns:xlink="http://www.w3.org/1999/xlink" viewBox="0 0 150 150"><defs><style>.cls-1{fill:#82c841;}.cls-2{isolation:isolate;}.cls-3{clip-path:url(#clip-path);}.cls-4{fill:#fff;}.cls-5{fill:#293b4c;}.cls-6{mix-blend-mode:multiply;}.cls-7{fill:#fbd3d4;}.cls-8{fill:#ffdabb;}.cls-9{fill:#1d1f21;}.cls-10{fill:#edbec1;}.cls-11{fill:#e5d7d5;}.cls-12{fill:#fef8f7;}</style><clipPath id="clip-path"><circle class="cls-1" cx="75" cy="75" r="75"/></clipPath></defs><g class="cls-2"><g id="レイヤー_2" data-name="レイヤー 2"><g id="date"><circle class="cls-1" cx="75" cy="75" r="75"/><g class="cls-3"><path class="cls-4" d="M95,69.76l5.6-35.62,10.68-8.65s15.52,8.91,15.78,10.69,9.66,36.12,9.66,36.12l-9.66,19.85-24.43-7.63Z"/><path class="cls-5" d="M105.16,24.58C99.1,26.23,94.66,31.6,92.3,39c-6.91,8-18.75,16.28-21.29,17-3,.82-1.4.18-4.2.94-7.63,2.08-11.9,10.83-9.52,19.55,2.28,8.39,9.86,13.67,17.22,12.23l3.68,14.53a5,5,0,0,0,4.46,3.77l6.42.52a2.53,2.53,0,0,0,1.83-.59l1.64-1.4a1.5,1.5,0,0,0,.48-1.55L88.35,87.3A86.52,86.52,0,0,1,106.46,91c5.75,5.15,12.3,7.52,18.36,5.87C137.26,93.46,143,74.5,137.55,54.57S117.6,21.2,105.16,24.58Zm18.46,63.34c-8.74,2.38-19.18-8-23.32-23.21s-.4-29.45,8.34-31.82,19.19,8,23.32,23.2S132.36,85.54,123.62,87.92Z"/><path class="cls-5" d="M112.16,52.65c-3.12.85-4.72,5-3.57,9.24s4.63,7,7.76,6.15,4.73-5,3.57-9.23S115.29,51.8,112.16,52.65Z"/><g class="cls-6"><path class="cls-1" d="M7.6,123.8c.81,1.88,8.73,3,11.32,3.26a65.71,65.71,0,0,0,9.49.75c2.55-.12,16.42,1,33.73-2,2.35-.4,9.65-1.3,11.73-2.67a2.29,2.29,0,0,0-.67-4c-2.11-.82-11.75-1.72-14.46-1.73q-17.57-.14-35.1.85c-3,.16-11.9.42-14.22,1.86C8,121,7,122.48,7.6,123.8Z"/></g><path class="cls-4" d="M76.75,72.46a23.41,23.41,0,0,0-4.75-8,24.76,24.76,0,0,0-11.09-6.92,27.66,27.66,0,0,0-20.73,1.84C34.07,62.78,30.08,67.56,28,75.68A19,19,0,0,0,32.36,92.9c3.24,3.58,9.87,6.95,20.42,7s15.09-2.35,18.92-5.59C78,89,79.46,80.23,76.75,72.46Z"/><path class="cls-4" d="M29.53,31.38c4-1.73,7.29,2.93,9.49,9,2.06,5.7,3.35,8.49,5.21,17.27a23.84,23.84,0,0,0-4,1.73,26.4,26.4,0,0,0-4.92,3.46c-2.85-3.23-6.58-9-7.87-14.14C25.75,42.23,25.53,33.12,29.53,31.38Z"/><path class="cls-7" d="M40.18,59.41A30.15,30.15,0,0,0,37.58,61a24.33,24.33,0,0,1-3.88-5.89,63.64,63.64,0,0,1-3.31-9.41c-.89-3.07-2-8.7-.46-9.37s4.19,4.61,5.56,7.43a87,87,0,0,1,5.8,15.05Q40.72,59.11,40.18,59.41Z"/><path class="cls-4" d="M61.48,57.77C63.81,48,69.09,32.1,75,31.27A3.37,3.37,0,0,1,78.09,33a8.59,8.59,0,0,1,1,3.56c1.09,9.26-2.31,19.45-8.44,26.61A24.87,24.87,0,0,0,61.48,57.77Z"/><path class="cls-7" d="M68.46,61.33A26.28,26.28,0,0,0,65,59.21a174.82,174.82,0,0,1,8.13-18.13c.31-.64,2.29-5,3.53-4.23s-.7,7.73-1.09,9.09C74.15,50.74,71.63,57,68.46,61.33Z"/><path class="cls-8" d="M46.21,84.24c0,7.56,11.56,7.58,12.31.94C59.47,76.74,46.17,75.83,46.21,84.24Z"/><path class="cls-9" d="M49.12,85.34a1.35,1.35,0,0,0,2.3.57A2.37,2.37,0,0,0,52,84.29c.11,0,.23,0,.35,0l.24,0a2.68,2.68,0,0,0,.64,1.62c.67.66,2.21.65,2.39-.48.05-.33.56-.19.51.14a1.89,1.89,0,0,1-2.65,1.14,2.22,2.22,0,0,1-1.16-1.34,2.29,2.29,0,0,1-1.08,1.28,1.83,1.83,0,0,1-2.67-1.17C48.54,85.15,49,85,49.12,85.34Z"/><path class="cls-9" d="M50.42,82.15c.49-.92,3.4-1,3.93,0s-.53,2.12-2,2.15S49.92,83.06,50.42,82.15Z"/><path class="cls-7" d="M72.4,85.72c-.7-3-6.56-1.72-6.33,1C66.35,90.25,73.18,89.09,72.4,85.72Z"/><path class="cls-9" d="M67.92,78.78c-2.25,0-2.26,3.73-.28,4C70.15,83.06,70.42,78.77,67.92,78.78Z"/><path class="cls-4" d="M67.46,79.06c-.81,0-.82,1.35-.1,1.44C68.26,80.61,68.36,79.06,67.46,79.06Z"/><path class="cls-7" d="M32.37,85.72c.71-3,6.56-1.72,6.34,1C38.42,90.25,31.59,89.09,32.37,85.72Z"/><path class="cls-9" d="M37.07,78.78c-2.25,0-2.26,3.73-.28,4C39.3,83.06,39.57,78.77,37.07,78.78Z"/><path class="cls-4" d="M36.61,79.06c-.82,0-.82,1.35-.11,1.44C37.41,80.61,37.51,79.06,36.61,79.06Z"/><path class="cls-10" d="M56.84,62.18a14.7,14.7,0,0,1,.58-2.82c.1-.34-.33-.57-.44-.23a16.13,16.13,0,0,0-.61,3c0,.36.42.45.47.08Z"/><path class="cls-10" d="M48.34,63.42a15.35,15.35,0,0,1,.58,2.82c0,.36.52.4.49,0a16,16,0,0,0-.6-3c-.11-.35-.57-.25-.47.1Z"/><path class="cls-10" d="M53,68.21a17.74,17.74,0,0,1,.19-2.82c.06-.36-.4-.47-.46-.1a19.46,19.46,0,0,0-.2,3c0,.37.47.33.47,0Z"/><path class="cls-10" d="M54.77,66.37a7.5,7.5,0,0,1,.43-2.55c.11-.34-.32-.59-.43-.25a8.48,8.48,0,0,0-.47,2.85c0,.36.47.32.47,0Z"/><path class="cls-10" d="M50.31,64.35a11.59,11.59,0,0,1,.18,1.85c0,.37.47.4.47,0a12,12,0,0,0-.19-2c-.07-.37-.53-.25-.46.11Z"/><path class="cls-10" d="M53.87,62.45a15.85,15.85,0,0,1,.29-3.9c.07-.36-.38-.53-.45-.17a16.54,16.54,0,0,0-.31,4c0,.37.49.4.47,0Z"/><path class="cls-10" d="M50.85,61.5c-.05-1.32-.14-2.64-.27-4,0-.37-.5-.3-.46.07.13,1.31.22,2.63.27,4,0,.36.48.29.46-.07Z"/><path class="cls-10" d="M52.34,63.73l-.09-2.43c0-.37-.48-.4-.46,0,0,.81.05,1.62.08,2.43,0,.37.48.4.47,0Z"/><path class="cls-10" d="M55.35,62.2a8.77,8.77,0,0,1,.35-1.78c.11-.35-.34-.52-.45-.18a9.55,9.55,0,0,0-.37,1.93c0,.37.43.39.47,0Z"/><path class="cls-10" d="M52.68,72.22a8.49,8.49,0,0,1,0-1.82c.05-.35-.42-.45-.47-.1a10,10,0,0,0,0,2c0,.36.49.31.47,0Z"/><path class="cls-10" d="M49.54,67.63a8.69,8.69,0,0,1,.17,1.82c0,.35.48.39.48,0a9.21,9.21,0,0,0-.19-2c-.07-.36-.53-.26-.46.1Z"/><path class="cls-10" d="M52.7,58.91c0-.48-.05-1-.07-1.44s-.49-.32-.47,0,.05,1,.07,1.45.49.32.47-.05Z"/><path class="cls-10" d="M56.53,65.48c.1-.46.2-.93.31-1.39s-.38-.49-.46-.14-.2.93-.31,1.39.38.49.46.14Z"/><path class="cls-10" d="M47.41,64.63c-.14-.46-.27-.92-.4-1.38s-.55-.21-.45.15.27.92.4,1.38.55.21.45-.15Z"/><path class="cls-10" d="M46.93,61.64a16.73,16.73,0,0,0-1.09-3.76c-.15-.33.26-.59.4-.25a17.16,17.16,0,0,1,1.14,3.88c.06.37-.39.49-.45.13Z"/><path class="cls-10" d="M45,60.92a8.86,8.86,0,0,0-.72-1.67c-.17-.31.24-.58.41-.26a9.62,9.62,0,0,1,.76,1.81c.11.35-.34.47-.45.12Z"/><path class="cls-10" d="M54.44,68.19A9.22,9.22,0,0,0,54.12,70c0,.36-.51.35-.48,0A10,10,0,0,1,54,68c.1-.35.55-.2.45.15Z"/><path class="cls-10" d="M48.88,62a11.43,11.43,0,0,0-.58-2.87c-.15-.32.24-.62.39-.29A11.77,11.77,0,0,1,49.34,62c.06.37-.41.38-.46,0Z"/><path class="cls-10" d="M58.85,61.62a10.11,10.11,0,0,0-.46,1.8c-.06.36-.53.32-.47,0a10.94,10.94,0,0,1,.5-2c.12-.34.55-.16.43.19Z"/><path class="cls-10" d="M59.88,60.49c.39-1.26.46-1.2.93-2.43.13-.35.56-.16.43.19-.47,1.23-.54,1.17-.93,2.43-.11.35-.54.16-.43-.19Z"/><path class="cls-10" d="M58.41,59.22l.3-1.42c.07-.36.53-.24.45.12l-.3,1.42c-.07.36-.53.24-.45-.12Z"/><path class="cls-10" d="M51,70.49c0-.48,0-1,0-1.45s.46-.34.46,0v1.45c0,.37-.47.35-.47,0Z"/><path class="cls-10" d="M55.54,58.53c.07-.42.15-.84.24-1.25s.53-.21.45.15-.16.74-.22,1.11-.53.35-.47,0Z"/><path class="cls-11" d="M40.06,117c-.92-1.05-3.53-.58-3.49-2,.06-1.87,2-2.94,2.68-5.52,2.48-9.34-7.54-12.05-10.91-7.61-2.75,3.62-2.87,10.27-1.23,13.87,1.09,2.38,5.46,4.57,9.42,4.58a5.57,5.57,0,0,0,3.28-.89A1.86,1.86,0,0,0,40.06,117Z"/><path class="cls-12" d="M17,91.43C19,88,24,85.78,28.06,84.88a19.1,19.1,0,0,0,4.3,8c3.24,3.58,9.87,6.95,20.42,7a43,43,0,0,0,9.42-.85C60.86,115,48.06,115.44,35.59,115.49c-6,0-13.67-1.84-17.45-6.44A15.7,15.7,0,0,1,17,91.43Z"/><path class="cls-12" d="M29,105.8c.74,3.08.21,5.77-1.28,7.34-1.1,1.16-2.2,3.09-1.24,4.38.69.92,2.24,1.17,2.64,2.23.32.85-.61,2.73-4.18,2.06-2.77-.53-5.82-2.24-7-4.63-3.41-6.82-2.7-16.12,4.9-16.21A6.15,6.15,0,0,1,29,105.8Z"/><path class="cls-12" d="M49.67,106.8c1.67,5.36,4.6,8.09,5.76,10.55s-1.09,5-4.35,3.51c-4.61-2.09-7.61-8.11-8.34-11C41.31,104.33,48.46,102.93,49.67,106.8Z"/><path class="cls-12" d="M56.51,103.37c2.54,4.83,5.66,8.11,6.82,10.57S62,119.09,59,117.46c-4.73-2.59-7.61-7.13-9.09-10.57C48.1,102.74,54.78,100.09,56.51,103.37Z"/><path class="cls-4" d="M44.81,103.28c.33-.29.77-2.74,1.88-3.85a43.56,43.56,0,0,0,6.09.47,40.44,40.44,0,0,0,10.13-1,4.31,4.31,0,0,1,0,2.92,2.93,2.93,0,0,1-.42-.66,15,15,0,0,1-.24,4.29,1,1,0,0,1-.8-.88c0,1.57-1.24,3-1.63,4.33a.87.87,0,0,1-.45-.73,11.41,11.41,0,0,1-3.21,4.2,1.17,1.17,0,0,1-.35-.85,7.51,7.51,0,0,1-4.13,2.71.63.63,0,0,1,.14-.8,7.6,7.6,0,0,1-3.47,1.33c-.44-1.62-1.84-1.93-1.9-3.91-.2.37-.65,1-.72.79-.29-1-.86-3.76-.34-4.59-.35.34-.75.53-.95.4a11.11,11.11,0,0,1,1.64-4.56C45.73,103.28,45.24,103.59,44.81,103.28Z"/><path class="cls-12" d="M9.68,88.1c1.21-3.87,7.75-4.89,10.37.19A10.8,10.8,0,0,0,17,91.43a15,15,0,0,0-1.68,4.13C10.92,95,8.54,91.75,9.68,88.1Z"/></g></g></g></g></svg>