<svg xmlns="http://www.w3.org/2000/svg" viewBox="0 0 150 150"><defs><style>.cls-1{isolation:isolate;}.cls-2{fill:#82c841;}.cls-3{mix-blend-mode:multiply;}.cls-4{fill:#89837d;}.cls-5{fill:#756f69;}.cls-6{fill:#514a43;}.cls-7{fill:#e8e8e8;}.cls-8{fill:#9b948d;}.cls-9{fill:#1d1f21;}.cls-10{fill:#fff;}.cls-11{fill:#e8b7b1;}.cls-12{opacity:0.7;}.cls-13{fill:#293b4c;}</style></defs><g class="cls-1"><g id="レイヤー_2" data-name="レイヤー 2"><g id="date"><circle class="cls-2" cx="75" cy="75" r="75"/><g class="cls-3"><path class="cls-2" d="M38.51,130.14c.82,1.89,8.73,3,11.33,3.27a68.44,68.44,0,0,0,9.48.75c2.55-.12,16.43,1,33.74-2,2.35-.41,9.65-1.31,11.72-2.67a2.29,2.29,0,0,0-.67-4c-2.1-.83-11.75-1.72-14.45-1.74q-17.56-.13-35.11.85c-3,.17-11.89.42-14.21,1.87C38.93,127.37,38,128.83,38.51,130.14Z"/></g><path class="cls-4" d="M42,66.74C32.41,49,14.66,51.11,7.63,54.67,22.26,60.82,12,83.74,21.41,103.44,32,125.52,53.6,119.19,66,116.9,42.93,104.1,54.35,89.82,42,66.74Z"/><path class="cls-5" d="M52.43,103.67c-6.68,6.59-15.59,9.51-22.83,10.4,5.3,4.18,11.49,5.45,17.58,5.44a33.57,33.57,0,0,0,10.49-8.58A24.09,24.09,0,0,1,52.43,103.67ZM47.33,80.9C39.9,92.22,27.85,95.27,18.72,96a41.23,41.23,0,0,0,2.69,7.46c.31.63.62,1.24.95,1.83,12.23.38,22-6.27,27.37-10.9C49,90.25,48.5,85.8,47.33,80.9ZM42,66.81a.43.43,0,0,1,0-.07,29.35,29.35,0,0,0-7.08-8.86c-3.26,9.55-11.15,15.52-18.3,18.64.1,2.74.2,5.61.43,8.55C31,83.13,38.53,73.15,42,66.81ZM24.91,52.94A26.79,26.79,0,0,0,7.63,54.67c5,2.08,7,6.08,8,11.23C19.25,63.76,22.65,60.08,24.91,52.94Z"/><path class="cls-5" d="M91.86,30.7a28.35,28.35,0,0,1,8.33,9.69c6.53-7.47,5.79-17.36,5-18.12s-9.4-.42-16.74,6.24A30,30,0,0,1,91.86,30.7Z"/><path class="cls-6" d="M98,36.9c2.92-3.59,3.51-9.2,3.16-9.62s-5.12-.11-9.1,3.61A29.42,29.42,0,0,1,98,36.9Z"/><path class="cls-5" d="M48.45,35.46a37.69,37.69,0,0,1,8.33-6.72l.78-.41c-6.35-6.37-16.62-7-17.4-6.23-1.15,1.13-.69,11.31,4.75,17.8A35,35,0,0,1,48.45,35.46Z"/><path class="cls-6" d="M48.45,35.46a39.89,39.89,0,0,1,5.48-4.83c-4-3.68-8.6-4.31-9.24-3.89s-.58,5.87,2.68,9.92Q47.9,36,48.45,35.46Z"/><path class="cls-7" d="M108.44,54a15.72,15.72,0,0,1-5.64-2.67,5.41,5.41,0,0,0,4.09-2.19c-2-1.37-2.6-2.08-4.58-2.93-.06-.28-.13-.57-.2-.86A27,27,0,0,0,91.86,30.7a32.72,32.72,0,0,0-35.08-2,37.69,37.69,0,0,0-8.33,6.72A29.85,29.85,0,0,0,41.8,46.7c-2.44.82-3.72,2-4.82,2.49,0,.33,1,2,4.15,2.66,0,0-3.79,2-6.57,2.13a10.87,10.87,0,0,0,7,3.25c-.6.87-3.13,1-3.4,1.59,2.47,1.29,13.28,13.06,34.13,13.06,20.29,0,30.75-11.22,33.5-13.06-1.2-1.2-2.65-1.24-3.48-1.59C104.35,57,107.58,55.38,108.44,54Z"/><path class="cls-8" d="M92.67,51.2c-5-2.58-8.53-.82-10.26,1.68S81.73,58.77,84,60.7c1.2,1,5.34,2.82,8.45,7a48,48,0,0,0,8.31-4.84C99.82,58.71,96.42,53.15,92.67,51.2Z"/><path class="cls-8" d="M54.23,68.58a35.18,35.18,0,0,1,6.63-7.88c2.22-1.93,3.28-5.31,1.54-7.82s-5.53-4.64-10.26-1.68c-4.2,2.64-6.67,8.32-7.1,12.62A48.71,48.71,0,0,0,54.23,68.58Z"/><path class="cls-8" d="M102.2,45.71l-.09-.38A27,27,0,0,0,91.86,30.7a32.72,32.72,0,0,0-35.08-2,37.69,37.69,0,0,0-8.33,6.72,34.23,34.23,0,0,0-7.12,11.27s7.87-6.06,19.57.37c8.22,4.53,9.54,12.18,11,15.39,2.22-6.67,3.7-11.44,11.63-16.45,5.55-3.52,13.17-3.93,18.58-.21A.75.75,0,0,1,102.2,45.71Z"/><path class="cls-9" d="M57,52.8c2.41,0,2.41,4,.3,4.26C54.63,57.39,54.34,52.79,57,52.8Z"/><path class="cls-10" d="M57.51,53.11c.87,0,.87,1.45.11,1.54C56.65,54.77,56.54,53.11,57.51,53.11Z"/><path class="cls-9" d="M87.66,52.8c2.41,0,2.42,4,.3,4.26C85.27,57.39,85,52.79,87.66,52.8Z"/><path class="cls-10" d="M88.16,53.11c.87,0,.87,1.45.11,1.54C87.3,54.77,87.19,53.11,88.16,53.11Z"/><path class="cls-11" d="M97.14,57.58c0-3.68-7.11-3.69-7.57-.46C89,61.23,97.16,61.67,97.14,57.58Z"/><path class="cls-11" d="M47.9,57.88c0-3.68,7.12-3.69,7.57-.46C56.06,61.53,47.88,62,47.9,57.88Z"/><path class="cls-9" d="M76.13,60.77c.07-1.37-1.63-3.1-4.26-3s-4.12,1.43-3.93,3.12,2.06,2.7,4.18,2.7C74.75,63.64,76.07,62.14,76.13,60.77Z"/><path class="cls-9" d="M77.83,66.42a2.4,2.4,0,0,1-4.08,1c-.81-.8-1.06-2-1.06-3.83a5.27,5.27,0,0,1-.57,0h-.25c-.1,1.3-.24,2.83-1.21,3.8-1.19,1.18-3.91,1.14-4.23-.85-.08-.51-.86-.3-.78.22.33,2,2.87,2.68,4.52,1.94a3.8,3.8,0,0,0,2-2.35,4,4,0,0,0,1.88,2.24,3.12,3.12,0,0,0,4.56-2C78.73,66.13,77.94,65.91,77.83,66.42Z"/><path class="cls-9" d="M79,123.31c-.22,3,16.5,6.51,17.19,3.57C97.54,121.12,79.21,120.34,79,123.31Z"/><path class="cls-8" d="M84.4,124.63c11.07.51,16.59-12.88,9.21-19.26A11.23,11.23,0,0,0,75.67,110C73.48,116.35,76.14,124.25,84.4,124.63Z"/><path class="cls-9" d="M65.3,123.31c.21,3-16.5,6.51-17.19,3.57C46.76,121.12,65.08,120.34,65.3,123.31Z"/><path class="cls-8" d="M59.9,124.63c-11.08.51-16.59-12.88-9.21-19.26A11.23,11.23,0,0,1,68.63,110C70.82,116.35,68.15,124.25,59.9,124.63Z"/><path class="cls-8" d="M72.32,71.88A49.84,49.84,0,0,1,56,69.22C52.79,74.28,47.51,81,46.61,94.61c-.52,7.89,4.65,26.16,25,26.16s24.57-14,24.76-25.32C96.54,83,92.66,76.77,89.07,69A48.89,48.89,0,0,1,72.32,71.88Z"/><g class="cls-12"><path class="cls-11" d="M72.32,71.88a50.56,50.56,0,0,1-12.4-1.5A44.45,44.45,0,0,0,54,91.15c-.37,6.85,3.27,22.71,17.55,22.71S88.81,101.7,89,91.88c.14-10-2.19-15.38-4.54-21.46A50.11,50.11,0,0,1,72.32,71.88Z"/></g><path class="cls-8" d="M91.1,77.8C87,77.51,87,83.52,85.52,87.14c-3.09,7.63-8,7.36-7.89,10.92A2.8,2.8,0,0,0,80,100.47c1.17.26,9.14.27,13.11-8.45C95.68,86.28,95.25,78.1,91.1,77.8Z"/><path class="cls-9" d="M85.7,86.66a3.94,3.94,0,0,1-.18.48c-3.09,7.63-8,7.36-7.89,10.92A2.8,2.8,0,0,0,80,100.47c1.17.26,9.14.27,13.11-8.45a15,15,0,0,0,.71-1.87C93.68,88.2,88.29,85.05,85.7,86.66Z"/><path class="cls-8" d="M53.06,77.78c4.15-.29,2.32,5,4.95,10.57,2.7,5.73,8.08,8,8,9.71a2.89,2.89,0,0,1-2.32,2.41c-1.16.26-8.7,2-13.44-8C47.49,86.71,48.91,78.08,53.06,77.78Z"/><path class="cls-9" d="M58,88.35a15.83,15.83,0,0,1-1-2.73.14.14,0,0,1-.09,0c-2.37-.95-7.69,2.27-7.31,5.33a12.45,12.45,0,0,0,.59,1.51c4.74,10,12.28,8.26,13.44,8A2.89,2.89,0,0,0,66,98.06C66.09,96.36,60.71,94.08,58,88.35Z"/><path class="cls-13" d="M130.5,59.08a1.83,1.83,0,0,0-1.63,0l-6.7,3.4a1.84,1.84,0,0,0-.77.72L119,67.38a1.85,1.85,0,0,1-3.21,0l-2.4-4.16a1.79,1.79,0,0,0-.77-.72l-6.7-3.4a1.83,1.83,0,0,0-1.63,0l-6.73,3.16a1.86,1.86,0,0,0-1.06,1.68V75.6a1.88,1.88,0,0,0,.55,1.32l19,18.78a1.85,1.85,0,0,0,2.6,0l19-18.78a1.88,1.88,0,0,0,.55-1.32V63.92a1.86,1.86,0,0,0-1.06-1.68Z"/></g></g></g></svg>