<svg xmlns="http://www.w3.org/2000/svg" xmlns:xlink="http://www.w3.org/1999/xlink" viewBox="0 0 25.68 41.44"><defs><style>.cls-1{fill:#82c841;}.cls-2{clip-path:url(#clip-path);}.cls-3{fill:#f19446;}.cls-4{fill:#ffa766;}.cls-5{fill:#faeada;}.cls-6{fill:#bc2828;}.cls-7{fill:#fff;}.cls-8{fill:#f9c7c7;}.cls-9{fill:#1d1f21;}</style><clipPath id="clip-path" transform="translate(1.78)"><circle class="cls-1" cx="10.65" cy="14.45" r="10.55"/></clipPath></defs><g id="レイヤー_2" data-name="レイヤー 2"><g id="レイヤー_1-2" data-name="レイヤー 1"><circle class="cls-1" cx="12.43" cy="14.45" r="10.55"/><g class="cls-2"><path class="cls-3" d="M10.54,18.12a12.75,12.75,0,0,0,4.94-.79,29.55,29.55,0,0,1,1.82,11c-.15,2.38-1.59,7.91-7.44,7.58-6.12-.34-6.72-5.6-6.7-8.26A24.48,24.48,0,0,1,6.09,17.2,12.12,12.12,0,0,0,10.54,18.12Z" transform="translate(1.78)"/><path class="cls-4" d="M10.09,20.31a4.37,4.37,0,0,1,4.18,3.08A9.18,9.18,0,0,1,14.88,27c0,3.11-1.51,5.29-4.62,5.23A4.63,4.63,0,0,1,5.4,27.26C5.4,22.88,7.22,20.21,10.09,20.31Z" transform="translate(1.78)"/><path class="cls-5" d="M5.36,18.7a3.42,3.42,0,0,1,.51-1.59,12.28,12.28,0,0,0,4.67,1,12.61,12.61,0,0,0,5.06-.84A3.15,3.15,0,0,1,16,18.85c-.06,0-.18,0-.43-.07a3.64,3.64,0,0,1,.55,2.07.68.68,0,0,1-.49-.21,6.38,6.38,0,0,1,.32,1.92c-.14.06-.46-.11-.56-.3a4.44,4.44,0,0,1-.21,2.2c-.15,0-.35-.31-.41-.46a3.33,3.33,0,0,1-1.06,1.77.92.92,0,0,1-.18-.66A9,9,0,0,1,12.32,27a.75.75,0,0,1-.24-.63c-.37.84-1.1.93-1.48,1.44-.12-.24-.73-.53-.85-.76a.6.6,0,0,1-.35.48c-.19-.77-.72-.75-.91-1.51a2.72,2.72,0,0,1-.25.54,2.74,2.74,0,0,1-.84-1.7.74.74,0,0,1-.48.7,3.72,3.72,0,0,1-.24-2,.72.72,0,0,1-.42.5c-.37-.85-.59-1.36-.08-2.14a.76.76,0,0,1-.62.29A4.2,4.2,0,0,1,5.9,20a.61.61,0,0,1-.58.22,5.49,5.49,0,0,1,.61-1.82A.7.7,0,0,1,5.36,18.7Z" transform="translate(1.78)"/><path class="cls-3" d="M7.94,35.55l-.2,1.19a6.52,6.52,0,0,0,0,2.78c.13.48.37,1,.15,1.44a1,1,0,0,1-.85.48,1.68,1.68,0,0,1-1-.35,5.32,5.32,0,0,1-1.87-4.26,35.35,35.35,0,0,1,0-4.25A5.86,5.86,0,0,0,7.94,35.55Z" transform="translate(1.78)"/><path class="cls-6" d="M4.93,37.08a4.68,4.68,0,0,0,2.81-.35h0a6.52,6.52,0,0,0,0,2.78c.13.48.37,1,.15,1.44a1,1,0,0,1-.85.48,1.68,1.68,0,0,1-1-.35,5.3,5.3,0,0,1-1.87-4.25A5.28,5.28,0,0,0,4.93,37.08Z" transform="translate(1.78)"/><path class="cls-3" d="M11.26,35.82a6,6,0,0,0,4.12-2.28,16.63,16.63,0,0,1-1,5.72,2.77,2.77,0,0,1-2.9,2.11c-.41,0-.65-.53-.68-.94A4.25,4.25,0,0,1,11,39.21,11,11,0,0,0,11.26,35.82Z" transform="translate(1.78)"/><path class="cls-6" d="M14.43,39.26a2.77,2.77,0,0,1-2.9,2.11c-.41,0-.65-.53-.68-.94A4.25,4.25,0,0,1,11,39.21a10.19,10.19,0,0,0,.26-2.46,3.63,3.63,0,0,0,2,.64A6.58,6.58,0,0,0,15,37.24,17.83,17.83,0,0,1,14.43,39.26Z" transform="translate(1.78)"/><path class="cls-3" d="M-1.35,14.76c1-.46,2.08.93,2.93,1.78,1.25,1.25,2.1,2.32,3.61,2.52A27.25,27.25,0,0,0,4,22.49C-.39,21.5-2.83,15.44-1.35,14.76Z" transform="translate(1.78)"/><path class="cls-6" d="M.17,20c-1.79-2.11-2.48-4.81-1.52-5.25s2.08.93,2.93,1.78c.44.44.84.86,1.23,1.23A6.37,6.37,0,0,1,.17,20Z" transform="translate(1.78)"/><path class="cls-3" d="M16.93,22.85a34.38,34.38,0,0,0-.86-3.64,8.28,8.28,0,0,0,4.28-2c1.32-1.09,2.54-2.15,3.26-1.49s-.22,2.87-.87,3.75A8,8,0,0,1,16.93,22.85Z" transform="translate(1.78)"/><path class="cls-6" d="M20.35,17.18c1.32-1.09,2.54-2.15,3.26-1.49s-.22,2.87-.87,3.75a9.27,9.27,0,0,1-1.87,1.89,7,7,0,0,1-2.47-2.85A10.19,10.19,0,0,0,20.35,17.18Z" transform="translate(1.78)"/></g><path class="cls-3" d="M2.52,6.42C1,4,1.57.29,2.09,0s3.64,1.34,4.82,3.4A6.48,6.48,0,0,0,2.52,6.42Z" transform="translate(1.78)"/><path class="cls-6" d="M3.39,5.27c-.58-1-1.06-2.87-.68-3.84A6.32,6.32,0,0,1,5.5,3.9,6.58,6.58,0,0,0,3.39,5.27Z" transform="translate(1.78)"/><path class="cls-3" d="M18.71,6.74c0-.09-.08-.18-.13-.27a6.7,6.7,0,0,0-4.09-3c1.47-2.24,4.61-3.35,5-3s.58,4.3-.77,6.29Z" transform="translate(1.78)"/><path class="cls-6" d="M15.75,4a5.73,5.73,0,0,1,2.73-1.91A6.21,6.21,0,0,1,18,5.57,6.89,6.89,0,0,0,15.75,4Z" transform="translate(1.78)"/><path class="cls-3" d="M1.87,9.45a6.86,6.86,0,0,1,.49-2.69C3,5.28,4.89,3.22,10.05,3s7.75,2,8.53,3.47A8.15,8.15,0,0,1,19,12.14c-.22.84-1.73,6-8.26,5.87A8.53,8.53,0,0,1,1.87,9.45Z" transform="translate(1.78)"/><path class="cls-7" d="M.09,9.39a5.85,5.85,0,0,1,8.09.91,8.15,8.15,0,0,1,1.38,3.1,2,2,0,0,1,1.34,0c1.06-2.87,2.79-4.29,4.3-4.56a7.31,7.31,0,0,1,5.71,1.53,15.16,15.16,0,0,1-1.68,1.22,15.4,15.4,0,0,0,1.88.92,6,6,0,0,1-2.64,1.25,2.21,2.21,0,0,1,1,.72c-1.3.72-3.39,3.71-8.87,3.59-6-.14-8.81-4.72-9.16-5a1.72,1.72,0,0,1,.78-.49C1.47,12.39.12,11.86,0,11.36c.8-.28,1.1-.79,1.76-.87C1.22,10,.09,9.54.09,9.39Z" transform="translate(1.78)"/><path class="cls-7" d="M9.79,12.67a8.55,8.55,0,0,0-.45-1.19c0-.07-.14,0-.11.07a8,8,0,0,1,.44,1.15.06.06,0,1,0,.12,0Z" transform="translate(1.78)"/><path class="cls-7" d="M9,10.43a5.67,5.67,0,0,0-.7-1.12c-.05-.06-.15,0-.1.08a4.54,4.54,0,0,1,.68,1.09c0,.07.15,0,.12-.05Z" transform="translate(1.78)"/><path class="cls-7" d="M7.5,8.52a9.67,9.67,0,0,1-1-.82c-.06,0-.13,0-.07.1a9.79,9.79,0,0,0,1,.82c.06.05.14,0,.08-.1Z" transform="translate(1.78)"/><path class="cls-7" d="M9.23,3.32A10.92,10.92,0,0,1,9.39,4.6c0,.08.13.06.12,0A9.33,9.33,0,0,0,9.35,3.3c0-.08-.14-.06-.12,0Z" transform="translate(1.78)"/><path class="cls-7" d="M5.53,7.27c-.31-.18-.62-.34-.94-.49-.07,0-.12.08,0,.11.32.15.63.32.94.49.07,0,.12-.07,0-.11Z" transform="translate(1.78)"/><path class="cls-7" d="M3.72,6.86l-.61-.13c-.08,0-.11.1,0,.11L3.68,7c.08,0,.12-.1,0-.12Z" transform="translate(1.78)"/><path class="cls-7" d="M11,12.48a4.71,4.71,0,0,1,.58-1.14c.05-.07-.06-.12-.1-.06a4.32,4.32,0,0,0-.6,1.17c0,.08.09.1.12,0Z" transform="translate(1.78)"/><path class="cls-7" d="M12.88,9.29c-.33.34-.67.68-1,1-.06,0,0,.15.08.09.34-.34.67-.68,1-1,.06-.05,0-.15-.08-.09Z" transform="translate(1.78)"/><path class="cls-7" d="M13.87,8.93c.3-.12.59-.26.9-.36.08,0,0-.14,0-.11-.31.1-.6.24-.9.36-.07,0,0,.14,0,.11Z" transform="translate(1.78)"/><path class="cls-7" d="M16,8.25A5.33,5.33,0,0,1,17.14,8c.08,0,.06-.12,0-.12a5.07,5.07,0,0,0-1.22.24c-.07,0,0,.13,0,.11Z" transform="translate(1.78)"/><path class="cls-7" d="M3.15,7.69a4.83,4.83,0,0,1,1.2.17c.08,0,.1-.1,0-.12a4.68,4.68,0,0,0-1.23-.17c-.08,0-.08.12,0,.12Z" transform="translate(1.78)"/><path class="cls-7" d="M18.19,7.86l.35-.05a.06.06,0,1,0,0-.12l-.36,0c-.08,0-.06.13,0,.12Z" transform="translate(1.78)"/><path class="cls-7" d="M16.65,5.38,17,5.24a.07.07,0,0,0-.05-.12l-.33.14c-.07,0,0,.15,0,.12Z" transform="translate(1.78)"/><path class="cls-7" d="M10.39,12.83c0-.29.09-.57.14-.85,0-.08-.11-.1-.12,0-.05.28-.1.56-.14.85,0,.07.11.09.12,0Z" transform="translate(1.78)"/><path class="cls-7" d="M10.93,11.1A5.27,5.27,0,0,1,11.56,10c0-.06,0-.14-.1-.08a5.11,5.11,0,0,0-.64,1.17c0,.07.07.12.11,0Z" transform="translate(1.78)"/><path class="cls-7" d="M10.11,11.81a4.37,4.37,0,0,0,0-1c0-.08-.13-.06-.12,0a4.59,4.59,0,0,1,0,1c0,.08.12.1.12,0Z" transform="translate(1.78)"/><path class="cls-7" d="M9.7,10.63a3.79,3.79,0,0,0-.32-1.09.07.07,0,0,0-.12.05,3.93,3.93,0,0,1,.32,1.06c0,.08.14.06.12,0Z" transform="translate(1.78)"/><path class="cls-7" d="M14.53,4a4,4,0,0,0-.7.9c0,.07.06.14.1.07a4.22,4.22,0,0,1,.68-.88c.06,0,0-.15-.08-.09Z" transform="translate(1.78)"/><path class="cls-7" d="M10.31,9.64c0-.27.06-.54.08-.81,0-.08-.11-.07-.12,0,0,.27-.06.54-.08.81,0,.08.11.08.12,0Z" transform="translate(1.78)"/><path class="cls-7" d="M13.32,4.34l.39-.71c0-.07-.08-.12-.12,0-.12.24-.26.48-.39.71a.07.07,0,0,0,.12,0Z" transform="translate(1.78)"/><path class="cls-7" d="M7.81,9.4l-.6-.56c-.06-.05-.13.05-.07.1l.59.55c.06.06.14,0,.08-.09Z" transform="translate(1.78)"/><path class="cls-7" d="M10.54,7.78A6.47,6.47,0,0,1,10.8,6.4c0-.07-.09-.12-.11-.05a6.76,6.76,0,0,0-.27,1.41c0,.08.11.1.12,0Z" transform="translate(1.78)"/><path class="cls-7" d="M10.86,5.56c.07-.3.13-.59.2-.89,0-.08-.11-.1-.12,0-.07.3-.13.59-.2.89,0,.07.11.09.12,0Z" transform="translate(1.78)"/><path class="cls-7" d="M11.26,9.5a5.39,5.39,0,0,1,.6-1.2c.05-.06,0-.14-.09-.08a4.74,4.74,0,0,0-.62,1.23c0,.07.09.13.11.05Z" transform="translate(1.78)"/><path class="cls-7" d="M7.13,3.71a5,5,0,0,1,.71,1.14c0,.07.14,0,.11,0a5.15,5.15,0,0,0-.71-1.17c0-.06-.16,0-.11.07Z" transform="translate(1.78)"/><path class="cls-7" d="M12.77,6.5c.21-.28.42-.57.62-.86,0-.07-.06-.14-.1-.08-.2.29-.41.58-.62.86a.06.06,0,0,0,.1.08Z" transform="translate(1.78)"/><path class="cls-7" d="M12.94,8.76a6.62,6.62,0,0,1,1.12-1c.07,0,0-.15-.07-.1a6.44,6.44,0,0,0-1.14,1c-.06.06,0,.14.09.08Z" transform="translate(1.78)"/><path class="cls-7" d="M15.23,7a6.7,6.7,0,0,1,1.26-.62c.07,0,0-.14,0-.12a7.29,7.29,0,0,0-1.28.64.06.06,0,1,0,.07.1Z" transform="translate(1.78)"/><path class="cls-7" d="M8.69,8.28A4.55,4.55,0,0,0,8,7.38c0-.06-.15,0-.1.07a4.85,4.85,0,0,1,.74.9c0,.07.14,0,.1-.07Z" transform="translate(1.78)"/><path class="cls-7" d="M5.81,5.06a4.93,4.93,0,0,0-.93-.7c-.07,0-.15,0-.08.09a4.93,4.93,0,0,1,.93.7c.06.06.14,0,.08-.09Z" transform="translate(1.78)"/><path class="cls-7" d="M7.29,6.66,6.83,6.3c-.06,0-.14,0-.07.09l.45.36c.07,0,.15,0,.08-.09Z" transform="translate(1.78)"/><path class="cls-7" d="M9.66,7.92c-.11-.45-.21-.89-.31-1.33,0-.08-.14-.06-.13,0,.11.45.21.89.31,1.33,0,.08.15.06.13,0Z" transform="translate(1.78)"/><path class="cls-7" d="M8.87,5.31l-.24-.62c0-.07-.14,0-.12,0s.17.41.25.61.14,0,.11,0Z" transform="translate(1.78)"/><path class="cls-7" d="M7.22,7.53a10.27,10.27,0,0,0-.8-.68.06.06,0,1,0-.07.09,8.48,8.48,0,0,1,.79.69c.05,0,.13,0,.08-.1Z" transform="translate(1.78)"/><path class="cls-7" d="M5.38,6.34,4.94,6a.06.06,0,0,0-.08.1l.44.31c.07,0,.15-.06.08-.1Z" transform="translate(1.78)"/><path class="cls-7" d="M7.39,5.92a5.83,5.83,0,0,0-.89-1s-.13.05-.07.1a6.31,6.31,0,0,1,.86,1c0,.07.14,0,.1-.07Z" transform="translate(1.78)"/><path class="cls-7" d="M8.92,6.41a7.53,7.53,0,0,0-.38-.88c0-.07-.15,0-.11,0a7,7,0,0,1,.37.89c0,.07.14,0,.12,0Z" transform="translate(1.78)"/><path class="cls-7" d="M8.61,9l-.33-.46c0-.06-.14,0-.1.07l.33.46A.06.06,0,1,0,8.61,9Z" transform="translate(1.78)"/><path class="cls-7" d="M10.62,3.89V3.33a.06.06,0,0,0-.12,0V3.9c0,.08.12.07.12,0Z" transform="translate(1.78)"/><path class="cls-7" d="M15.41,4.75l.46-.33a.06.06,0,0,0-.08-.1l-.46.33c-.06,0,0,.14.08.1Z" transform="translate(1.78)"/><path class="cls-7" d="M4.35,5.2,3.83,5a.06.06,0,1,0,0,.11l.52.21c.07,0,.11-.08,0-.11Z" transform="translate(1.78)"/><path class="cls-7" d="M17.88,6,17.32,6c-.08,0-.07.14,0,.12l.56-.07c.08,0,.06-.13,0-.12Z" transform="translate(1.78)"/><path class="cls-7" d="M9.63,9c-.11-.31-.2-.61-.29-.92,0-.08-.13,0-.11,0,.08.31.18.62.29.92,0,.08.14,0,.11,0Z" transform="translate(1.78)"/><path class="cls-7" d="M11.84,4.41c.07-.32.14-.63.23-.94,0-.07-.1-.09-.12,0-.09.31-.16.62-.23.94,0,.07.1.1.12,0Z" transform="translate(1.78)"/><path class="cls-7" d="M10.07,8.2c0-.25,0-.5,0-.76,0-.08-.13-.06-.13,0,0,.25,0,.5,0,.76,0,.08.13.06.13,0Z" transform="translate(1.78)"/><path class="cls-7" d="M10,6.17c0-.3-.11-.59-.16-.89a.06.06,0,1,0-.12,0l.15.89c0,.08.14.07.13,0Z" transform="translate(1.78)"/><path class="cls-7" d="M11.12,8.5c.07-.29.16-.58.23-.87,0-.08-.1-.1-.12,0L11,8.48c0,.07.1.09.13,0Z" transform="translate(1.78)"/><path class="cls-7" d="M11.69,6.82A6.21,6.21,0,0,1,12.11,6c0-.07,0-.15-.1-.08a8.37,8.37,0,0,0-.44.84c0,.07.08.12.12.05Z" transform="translate(1.78)"/><path class="cls-7" d="M12.48,5.12a1.72,1.72,0,0,0,.29-.61c0-.08-.11-.1-.12,0a1.91,1.91,0,0,1-.26.56c-.05.06,0,.14.09.07Z" transform="translate(1.78)"/><path class="cls-7" d="M14.24,6.13l.94-.82c.06,0,0-.15-.07-.1L14.16,6c-.06,0,0,.15.08.09Z" transform="translate(1.78)"/><path class="cls-7" d="M13.05,7.41a5.44,5.44,0,0,1,.56-.69c.05-.06,0-.15-.08-.09a6.73,6.73,0,0,0-.59.71c0,.07.06.13.11.07Z" transform="translate(1.78)"/><path class="cls-7" d="M17.4,8.61a8.89,8.89,0,0,1,.89.07.06.06,0,0,0,0-.12,7,7,0,0,0-.91-.07.06.06,0,1,0,0,.12Z" transform="translate(1.78)"/><path class="cls-7" d="M3.18,5.93A6.9,6.9,0,0,1,4,6.17c.07,0,.12-.09,0-.12A8.84,8.84,0,0,0,3.2,5.8a.07.07,0,0,0,0,.13Z" transform="translate(1.78)"/><path class="cls-7" d="M12,9c.1-.11.19-.22.29-.32s-.05-.14-.1-.08-.19.21-.29.32,0,.14.1.08Z" transform="translate(1.78)"/><path class="cls-7" d="M5.48,8.05c.13.07.27.12.4.18s.12-.08,0-.11l-.39-.18a.06.06,0,1,0,0,.11Z" transform="translate(1.78)"/><path class="cls-7" d="M14.77,8a8.4,8.4,0,0,1,1.13-.64c.07,0,0-.16,0-.12a8.72,8.72,0,0,0-1.16.66c-.07,0,0,.15.07.1Z" transform="translate(1.78)"/><path class="cls-7" d="M14.14,7.06l.46-.37c.06-.05,0-.15-.07-.1L14.06,7a.06.06,0,0,0,.08.1Z" transform="translate(1.78)"/><path class="cls-7" d="M16.92,7.27,18.15,7c.08,0,.06-.13,0-.12l-1.23.25c-.07,0,0,.13,0,.12Z" transform="translate(1.78)"/><path class="cls-7" d="M12.11,7.58a1.59,1.59,0,0,1,.26-.41c.06-.06,0-.13-.09-.07a1.39,1.39,0,0,0-.28.43c0,.07.08.12.11,0Z" transform="translate(1.78)"/><path class="cls-7" d="M10.59,10.33a1.11,1.11,0,0,1,.12-.44c0-.07-.07-.12-.11-.05a1.1,1.1,0,0,0-.13.47c0,.08.12.1.12,0Z" transform="translate(1.78)"/><path class="cls-7" d="M5.78,4.07a1.12,1.12,0,0,1,.33.32c0,.07.14,0,.1-.07A1.14,1.14,0,0,0,5.86,4c-.07,0-.15.05-.08.09Z" transform="translate(1.78)"/><path class="cls-7" d="M15.53,6a2.4,2.4,0,0,0,.38-.23c.07,0,0-.15-.07-.1a1.31,1.31,0,0,1-.36.21.07.07,0,0,0,0,.12Z" transform="translate(1.78)"/><path class="cls-7" d="M11.48,5.79a2.47,2.47,0,0,1,.18-.52c0-.07-.08-.12-.11,0a2.24,2.24,0,0,0-.19.55c0,.08.11.1.12,0Z" transform="translate(1.78)"/><path class="cls-7" d="M7,4.58a1.75,1.75,0,0,1,.29.47c0,.07.14,0,.11-.06a1.93,1.93,0,0,0-.31-.49c0-.06-.14,0-.09.08Z" transform="translate(1.78)"/><path class="cls-7" d="M10.27,4.87a1.63,1.63,0,0,0,0-.31c0-.08-.13-.06-.12,0a2.44,2.44,0,0,1,0,.27c0,.08.12.1.12,0Z" transform="translate(1.78)"/><path class="cls-7" d="M8.27,3.78c0-.1-.07-.19-.12-.29S8,3.48,8,3.55a2.72,2.72,0,0,1,.11.25c0,.08.14.05.12,0Z" transform="translate(1.78)"/><path class="cls-7" d="M6.28,6.07a4.19,4.19,0,0,0-1-.71c-.07,0-.12.08,0,.11a4.55,4.55,0,0,1,1,.69c.06.06.13,0,.08-.09Z" transform="translate(1.78)"/><path class="cls-7" d="M8.67,7.23a4.12,4.12,0,0,0-.61-1.06c-.05-.07-.15,0-.1.08a4.27,4.27,0,0,1,.6,1c0,.08.14,0,.11,0Z" transform="translate(1.78)"/><path class="cls-8" d="M3.43,13.26a.86.86,0,0,1,.37-.55,1.12,1.12,0,0,1,1.66.7c.07.72-.72,1.06-1,1.05S3.28,14.19,3.43,13.26Z" transform="translate(1.78)"/><path class="cls-8" d="M14.89,13.55c.08-.78,1.32-.71,1.68-.52A.84.84,0,0,1,17,14,1.11,1.11,0,0,1,14.89,13.55Z" transform="translate(1.78)"/><path class="cls-9" d="M11.24,13.7c.23.59-.58,1.14-1.05,1.17s-1.22-.55-1-1.12S11,13.11,11.24,13.7Z" transform="translate(1.78)"/><path class="cls-9" d="M9.16,15.61c.19.31.54.37.74,0a1.84,1.84,0,0,0,.17-.77h.12l.15,0a1.69,1.69,0,0,0,.16.77c.16.33.6.43.77.05.06-.15.27,0,.21.12a.64.64,0,0,1-1,.18,1.27,1.27,0,0,1-.24-.41.9.9,0,0,1-.28.43.63.63,0,0,1-1-.24C8.86,15.6,9.07,15.48,9.16,15.61Z" transform="translate(1.78)"/><path class="cls-9" d="M4.94,13.18a.17.17,0,0,0,.16-.11,1,1,0,0,1,.82-.69,1,1,0,0,1,.83.69.17.17,0,0,0,.23.1.19.19,0,0,0,.1-.23A1.32,1.32,0,0,0,5.92,12a1.32,1.32,0,0,0-1.15.92.19.19,0,0,0,.1.23Z" transform="translate(1.78)"/><path class="cls-9" d="M13.83,13.18a.17.17,0,0,0,.16-.11,1,1,0,0,1,.82-.69,1,1,0,0,1,.83.69.17.17,0,0,0,.23.1.19.19,0,0,0,.1-.23A1.32,1.32,0,0,0,14.81,12a1.32,1.32,0,0,0-1.15.92.19.19,0,0,0,.1.23Z" transform="translate(1.78)"/></g></g></svg>