<svg xmlns="http://www.w3.org/2000/svg" xmlns:xlink="http://www.w3.org/1999/xlink" viewBox="0 0 150 150"><defs><style>.cls-1{fill:#82c841;}.cls-2{isolation:isolate;}.cls-3{clip-path:url(#clip-path);}.cls-4{fill:#fff;}.cls-5{fill:#ffd400;}.cls-6{fill:#293b4c;}.cls-7{mix-blend-mode:multiply;}.cls-8{fill:#9b3b4d;}.cls-9{fill:#31343a;}.cls-10{fill:#f5823c;}</style><clipPath id="clip-path"><circle class="cls-1" cx="75" cy="75" r="75"/></clipPath></defs><g class="cls-2"><g id="レイヤー_2" data-name="レイヤー 2"><g id="レイヤー_1-2" data-name="レイヤー 1"><circle class="cls-1" cx="75" cy="75" r="75"/><g class="cls-3"><path class="cls-4" d="M139.19,98.81,120.72,58.12h-5l-.06-.06-29.68.06H62.44L45.58,95.25,44,98.81a.43.43,0,0,0,0,.4.42.42,0,0,0,.36.19h94.47a.42.42,0,0,0,.35-.19A.43.43,0,0,0,139.19,98.81Z"/><path class="cls-5" d="M84.92,82.58l2.24-1.89A13.75,13.75,0,0,1,90,87l-2.88.55A11,11,0,0,0,84.92,82.58Z"/><path class="cls-5" d="M77.13,78.14l1.73-2.38a10,10,0,0,0,3,1.45,12.31,12.31,0,0,1,2.6,1.14l-1.5,2.53a8.48,8.48,0,0,0-2-.86A13,13,0,0,1,77.13,78.14Z"/><path class="cls-5" d="M75.34,68.76A9.63,9.63,0,0,0,77,73.88l-2.4,1.69a12.39,12.39,0,0,1-2.19-6.68Z"/><path class="cls-5" d="M108.07,88.91A15.16,15.16,0,0,1,110.58,83l2.4,1.69h0a12.21,12.21,0,0,0-2,4.74Z"/><path class="cls-5" d="M108.53,97.52a15,15,0,0,1-.33-6.38l2.9.46h0a12.25,12.25,0,0,0,.26,5.15Z"/><path class="cls-5" d="M91.25,96.37A15.15,15.15,0,0,0,91.57,90l-2.89.45h0a12.08,12.08,0,0,1-.26,5.15Z"/><path class="cls-5" d="M74.73,66.54a15,15,0,0,0,.33-6.39l-2.9.46h0a12.25,12.25,0,0,1-.26,5.15Z"/><path class="cls-5" d="M119.86,75.74a15.08,15.08,0,0,1,6.24-1.38l0,2.94h0a12,12,0,0,0-5,1.11Z"/><path class="cls-5" d="M117.61,76.91l1.44,2.57a19.93,19.93,0,0,0-4.36,3.21l-2.06-2.09A23.42,23.42,0,0,1,117.61,76.91Z"/><path class="cls-6" d="M119.13,35.21a19.58,19.58,0,1,0-39.15,0C80,46,98.62,73.27,99.55,73.27S119.13,46,119.13,35.21ZM99.55,42.7A7.49,7.49,0,1,1,107,35.21,7.48,7.48,0,0,1,99.55,42.7Z"/><g class="cls-7"><path class="cls-1" d="M16.63,130.14c.82,1.89,8.73,3,11.33,3.27a68.44,68.44,0,0,0,9.48.75c2.55-.12,16.43,1,33.74-2,2.35-.41,9.65-1.31,11.72-2.67a2.29,2.29,0,0,0-.67-4c-2.1-.83-11.75-1.72-14.45-1.74q-17.56-.13-35.11.85c-3,.17-11.89.42-14.21,1.87C17.05,127.37,16.07,128.83,16.63,130.14Z"/></g><path class="cls-8" d="M56.66,124.36c-.67,2.68-1.15,6.47-.41,6.79,1.32.56,2.16-1.54,3.4-1.64s1.7,2,3.59,1.92,1.31-2.59,2.27-3.07,1.16,1.54,2.6,1c.75-.27-.15-2.6-1.51-5.27A54.12,54.12,0,0,1,56.66,124.36Z"/><path class="cls-8" d="M34.61,125.06a8.85,8.85,0,0,1-.91-.31c-.05.15-.09.29-.14.43-.46,1.46-1,4.52.15,5,.81.38,1.7-1.62,2.87-1.21s.35,3.13,1.89,3.35,1.77-2,2.92-2.58,1.94,1.13,3.35.48c.64-.29.18-3-.34-5.05C41.12,125.71,38.13,126.05,34.61,125.06Z"/><path class="cls-6" d="M81.31,85c-4.13-4.25-8.59-6.5-12.22-9C67.16,83,70.59,91.4,73.62,94.8c2.44,2.72,6.81,4.33,14.62,5.17C89.4,95.47,84.7,88.47,81.31,85Z"/><path class="cls-4" d="M69.9,78.65a14.93,14.93,0,0,0,1.33,11c1.73,3.21,5.83,7.67,14.13,7.85C85,93.21,78.1,81.41,69.9,78.65Z"/><path class="cls-6" d="M75,91.1c-1.73-7.67-3.92-10.29-5.68-17.43-1.21-4.89-.72-13.32-2.91-18.07-7-15.31-21.61-11.9-27.15-9.12-13.52,6.78-9.08,20.75-11.71,27.41-4.64,11.71-7.08,24.09-4.38,34,2.06,7.54,4.15,15.16,11.46,17.19,5.79,1.62,10.16-.34,16.7-.67,7.22-.37,15.18,1.12,19.25-1.75C76.49,118.47,77.87,104,75,91.1Z"/><path class="cls-4" d="M74.27,100.24c-1.49-16.35-6.83-20.12-7.75-24.46-1.66-7.88.14-9.3-1.9-17.47-1.16-4.63-3.26-6.63-6.11-6.56-2,.06-3.1,4.61-2.95,9a6.85,6.85,0,0,0-.89.35,9.18,9.18,0,0,0-3.56,3.14,18.08,18.08,0,0,0-5.64-10.11,4.48,4.48,0,0,0-6.08.42C33.26,61,37,67.56,35.28,74.3c-3,11.53-5.91,14.9-7.55,27.54-.6,4.63-.34,14.68,5.1,19.11s12.25,1.9,18.84,1.71c5.06-.15,13.3.68,17-1.64C74.46,117.32,74.67,104.71,74.27,100.24Z"/><path class="cls-9" d="M62,59.67a3.17,3.17,0,0,0-2.39-2.48c-1.79-.34-2.53,1.6-2.79,3-.1.53.73.73.82.2.18-1,.61-2.67,1.93-2.38a2.25,2.25,0,0,1,1.59,1.67c.1.53.93.51.84,0Z"/><path class="cls-9" d="M44.93,60.75a3.19,3.19,0,0,0-2.26-1.91c-1.58-.19-2.22,1.64-2.5,2.85-.12.51.67.84.79.33.19-.8.58-2.55,1.74-2.33a2.38,2.38,0,0,1,1.48,1.38.41.41,0,1,0,.75-.32Z"/><path class="cls-10" d="M60.72,60.64a8.33,8.33,0,0,0-6,.41c-1.82.9-4.26,3.08-4,4.83s2.15,2.79,3.59,3.19,4.15.35,5.12-1.26a13.14,13.14,0,0,0-4.56-2.37C55.61,65,60.64,61.47,60.72,60.64Z"/><path class="cls-6" d="M13.6,94c-2.36,3.54-3.69,8-2.68,12.3C20.51,104,32.29,100,31.24,78.11A59.18,59.18,0,0,0,13.6,94Z"/><circle class="cls-5" cx="99.74" cy="35.39" r="8.96"/><polygon class="cls-10" points="49.68 39.79 47.24 22.12 53.94 22.43 49.68 39.79"/><polygon class="cls-10" points="55.09 40.27 63.38 28.93 58.62 26.63 55.09 40.27"/><polygon class="cls-10" points="45.63 40.27 37.33 28.93 42.1 26.63 45.63 40.27"/></g></g></g></g></svg>