<svg xmlns="http://www.w3.org/2000/svg" xmlns:xlink="http://www.w3.org/1999/xlink" viewBox="0 0 150 150"><defs><style>.cls-1{fill:#82c841;}.cls-2{isolation:isolate;}.cls-3{clip-path:url(#clip-path);}.cls-4{fill:#ffd400;}.cls-5{mix-blend-mode:multiply;}.cls-6{fill:#fff;}.cls-7{fill:#d38e3c;}.cls-8{fill:#db9840;}.cls-9{fill:#1d1f21;}.cls-10{fill:#f1a953;}.cls-11{fill:#a2907d;}.cls-12{fill:#c67f2b;}.cls-13{fill:#db7240;}.cls-14{fill:#fffff8;}.cls-15{fill:#febf77;}.cls-16{fill:#93511a;}</style><clipPath id="clip-path"><circle class="cls-1" cx="75" cy="75" r="75"/></clipPath></defs><g class="cls-2"><g id="レイヤー_2" data-name="レイヤー 2"><g id="date"><circle class="cls-1" cx="75" cy="75" r="75"/><g class="cls-3"><path class="cls-4" d="M83.59,67.05a9.6,9.6,0,0,0,1.66,5.11l-2.4,1.7a12.42,12.42,0,0,1-2.19-6.68Z"/><g class="cls-5"><path class="cls-1" d="M15.73,128.43c.81,1.88,8.73,3,11.32,3.26a65.47,65.47,0,0,0,9.48.75c2.55-.11,16.43,1,33.74-2,2.35-.4,9.65-1.3,11.72-2.66a2.29,2.29,0,0,0-.67-4c-2.1-.82-11.75-1.71-14.45-1.73q-17.57-.14-35.11.85c-3,.16-11.89.42-14.21,1.87C16.14,125.65,15.16,127.11,15.73,128.43Z"/></g><path class="cls-6" d="M131.63,34.82a10.14,10.14,0,0,0-2.16-4.41,8.28,8.28,0,0,0-.7-.75,10.12,10.12,0,0,0-7.22-2.87l-52.88.78a10.15,10.15,0,0,0-7.14,3.08,8.34,8.34,0,0,0-.67.78,10,10,0,0,0-2.19,6.44L59.22,75a10,10,0,0,0,.9,4,9.83,9.83,0,0,0,2.18,3.11c.23.23.46.43.71.64A10.13,10.13,0,0,0,69.52,85l52.88-.78a10.09,10.09,0,0,0,6.44-2.44,8.3,8.3,0,0,0,.69-.64,10.36,10.36,0,0,0,2.1-3.18h0a10,10,0,0,0,.77-4l-.55-37.14A10.71,10.71,0,0,0,131.63,34.82Z"/><path class="cls-7" d="M21.18,80.06c-5.7.13-10.7-3.65-13.8-6.29a3.2,3.2,0,0,0-1.83-1,2.51,2.51,0,0,0-1.81,1,8.26,8.26,0,0,0-.81,9.26,9.35,9.35,0,0,0,8.28,4.53C14.51,87.51,19.19,83.91,21.18,80.06Z"/><path class="cls-8" d="M62.4,101.56a29.72,29.72,0,0,1-7.7,5.86l-.81.41c.94,7.87,4,19.85,4.91,20s1.36-1.33,1.54-2.07c.23.6,1.23,1.8,2,1.38s.34-3.51.1-20.67C62.4,105.38,62.4,103.42,62.4,101.56Z"/><path class="cls-9" d="M57.35,124.44c.61,2,1.14,3.35,1.45,3.4,1,.17,1.36-1.33,1.54-2.07.23.6,1.23,1.8,2,1.38.32-.18.41-1,.39-3.63A15.49,15.49,0,0,1,57.35,124.44Z"/><path class="cls-8" d="M14.34,103.9c-.23,21.69-.7,25.39,0,25.81s1.74-.78,2-1.38c.18.74.55,2.24,1.55,2.07.69-.12,2.53-6.7,3.82-13.3.41-2.1.87-5.29,1.17-7.77A18.38,18.38,0,0,1,14.34,103.9Z"/><path class="cls-9" d="M19.35,127c-.61,2-1.14,3.35-1.45,3.4-1,.17-1.37-1.33-1.55-2.07-.23.6-1.23,1.8-2,1.38-.32-.18-.42-1-.4-3.63A15.58,15.58,0,0,0,19.35,127Z"/><path class="cls-8" d="M31.12,111.2a55.2,55.2,0,0,1-6-1.2c1.18,15.9,1.15,18.89,1.84,19.2s1.66-.93,1.84-1.55c.25.72.74,2.19,1.72,1.92s2.52-10.26,3-18C32.69,111.43,31.88,111.32,31.12,111.2Z"/><path class="cls-9" d="M31.67,126.06c-.42,2.07-.83,3.43-1.14,3.51-1,.27-1.47-1.2-1.72-1.92-.18.62-1.06,1.9-1.84,1.55-.34-.15-.5-.95-.72-3.58A15.84,15.84,0,0,0,31.67,126.06Z"/><path class="cls-8" d="M66.81,88.65c-9.75,0-15.85-4.52-19.11-10.32a55,55,0,0,0-17-2.26c-10,.44-19.28,4.29-19.55,17.53s10.88,16.21,20,17.6c5.7.88,13.73,1.56,23.58-3.78,8.92-4.84,13-11.88,13.57-18.85C67.78,88.59,67.31,88.65,66.81,88.65Z"/><path class="cls-10" d="M66.81,88.65c-.94,0-1.83-.05-2.7-.13h0c-1.72,5.66-4.23,9.46-11,12.79-7.45,3.64-13.14-1.09-21-.75-5.59.25-8.07,2.74-9.17,8.77a48,48,0,0,0,8.23,1.86c5.7.88,13.73,1.56,23.58-3.78,8.91-4.83,13-11.85,13.56-18.81,0,0,0,0-.06,0C67.74,88.6,67.29,88.65,66.81,88.65Z"/><path class="cls-8" d="M42.15,102.07a133.44,133.44,0,0,0,2.5,20.9c.8,4.15,1.67,7.34,2.14,7.44,1,.23,1.43-1.26,1.65-2,.2.61,1.14,1.86,1.9,1.47s.51-3.54,1.13-21.12c0-1.12.14-4.3.23-6.89C48.32,103.13,45.27,102.74,42.15,102.07Z"/><path class="cls-9" d="M45.51,127c.51,2,1,3.39,1.28,3.46,1,.23,1.43-1.26,1.65-2,.2.61,1.14,1.86,1.9,1.47.33-.16.46-1,.58-3.6A15.77,15.77,0,0,1,45.51,127Z"/><path class="cls-11" d="M52.43,51.24a20,20,0,0,1,2.47-1.59A8.6,8.6,0,0,1,51.61,48a1.83,1.83,0,0,1-.47-.53,1.43,1.43,0,0,1,.21-1.4,9.42,9.42,0,0,1,1-1.07,5.38,5.38,0,0,0,1.51-3.56,2.61,2.61,0,0,0-.58-1.92,1.37,1.37,0,0,0-1.85-.2,2.17,2.17,0,0,0-.5,1.07l-.75,2.88a1.57,1.57,0,0,1-.64,1.09A1,1,0,0,1,48.41,44a2.6,2.6,0,0,1-.54-1.15c-.83-3.28-.41-6.28-.59-9.66-.14-2.59-1.35-3.22-2-3-1.44.51-1.53,2.38-1.53,3.92,0,1.88,1.17,4.46,0,5.23s-3-1.2-3.58-2.16a5.47,5.47,0,0,0-1.24-1.64,1.24,1.24,0,0,0-1.8.27,1.45,1.45,0,0,0,0,.8,5.94,5.94,0,0,0,2.15,3.45,9.89,9.89,0,0,0,2.4,1.53,11.57,11.57,0,0,1,3.55,2.14A12.28,12.28,0,0,1,47.28,47,10.41,10.41,0,0,0,52.43,51.24Z"/><path class="cls-11" d="M94.75,34.13a1.85,1.85,0,0,0-1.71.46c-.47.39-1.79,2.71-4.06,3.7-.36.16-.84.37-1.12.09-.76-.77,1.43-7.34-1.27-7.93-.39-.09-1.94.63-1.79,3.85.08,1.68.43,4.59,0,6.6-.34,1.54-.83,3.65-2,3.54s-.58-2.3-.71-3.24a4.08,4.08,0,0,0-.34-1.33,1.36,1.36,0,0,0-1.06-.78,1.28,1.28,0,0,0-1,.41A3.34,3.34,0,0,0,79,42.15a18,18,0,0,0,.76,4,3.68,3.68,0,0,1,.25,1.27,2.76,2.76,0,0,1-.93,1.75,4.78,4.78,0,0,1-1.05.78,20.53,20.53,0,0,1,1.79,1.26,14,14,0,0,0,6.56-6.84,5.49,5.49,0,0,1,3.25-3.09c3.81-1.53,5.24-3.58,5.55-4.43C95.68,35.51,95.61,34.41,94.75,34.13Z"/><path class="cls-8" d="M87.64,66.7c-.65-11.42-9-19.92-21.15-19.92S44.67,55,44.7,66.7c0,10,6.23,22,22.11,22S88.08,74.32,87.64,66.7Z"/><path class="cls-12" d="M85.22,57.68c-3.4-6.59-10.1-10.9-18.73-10.9s-16,4.2-19.58,10.83c9.15-2.06,16.56,4.62,19.25,19C67.81,61.9,77.36,55.56,85.22,57.68Z"/><path class="cls-12" d="M35.1,46.5a1.55,1.55,0,0,0-1.14.22,1.49,1.49,0,0,0-.37,1.22c.11,3.28,2.7,12.15,13.32,9.67a19.49,19.49,0,0,1,2.69-3.8A23.78,23.78,0,0,0,35.1,46.5Z"/><path class="cls-10" d="M48.28,55.44c-3.72-2.62-8.13-5-12.51-5.87-.05,2.78,3.4,8.75,11.57,7.31A15.48,15.48,0,0,1,48.28,55.44Z"/><path class="cls-12" d="M97,46.57a1.6,1.6,0,0,1,1.14.21A1.49,1.49,0,0,1,98.54,48c-.11,3.27-2.69,12.15-13.32,9.67a19.2,19.2,0,0,0-2.69-3.8A23.84,23.84,0,0,1,97,46.57Z"/><path class="cls-10" d="M83.85,55.41c.33.48.63,1,.92,1.47,8.16,1.42,11.6-4.53,11.55-7.31C92,50.42,87.56,52.8,83.85,55.41Z"/><path class="cls-13" d="M85.82,75.55c0-3.54-6.1-3.54-6.49-.44C78.83,79.05,85.83,79.48,85.82,75.55Z"/><path class="cls-13" d="M46.63,75.55c0-3.54,6.09-3.54,6.49-.44C53.62,79.05,46.61,79.48,46.63,75.55Z"/><path class="cls-9" d="M52,70.3c2.31,0,2.32,3.84.29,4.09C49.71,74.71,49.43,70.29,52,70.3Z"/><path class="cls-14" d="M52.48,70.6c.83,0,.83,1.39.1,1.48C51.65,72.19,51.55,70.59,52.48,70.6Z"/><path class="cls-9" d="M80.74,70.3c2.31,0,2.32,3.84.29,4.09C78.45,74.71,78.17,70.29,80.74,70.3Z"/><path class="cls-14" d="M81.21,70.6c.84,0,.84,1.39.11,1.48C80.39,72.19,80.29,70.59,81.21,70.6Z"/><path class="cls-15" d="M73.1,76c0,6.34-12.94,6.36-13.77.79C58.27,69.75,73.14,69,73.1,76Z"/><path class="cls-9" d="M68.81,72.92c0,2.31-4.91,2.32-5.22.29C63.18,70.62,68.82,70.34,68.81,72.92Z"/><path class="cls-9" d="M70.29,76.66c-.56,1.16-1.87,1.83-2.94.85a3.6,3.6,0,0,1-.82-2.84,4,4,0,0,1-.69,0A3.54,3.54,0,0,1,65,77.51c-1.07,1-2.38.31-2.94-.85-.19-.4-.78,0-.59.35a2.54,2.54,0,0,0,3.43,1.41A2.64,2.64,0,0,0,66.19,77a2.58,2.58,0,0,0,1.26,1.44A2.54,2.54,0,0,0,70.88,77C71.08,76.61,70.48,76.26,70.29,76.66Z"/><path class="cls-16" d="M65,70.54a12.17,12.17,0,0,0-.08-1.71c0-.32.37-.34.41,0a14.05,14.05,0,0,1,.07,1.72c0,.31-.41.34-.4,0Z"/><path class="cls-16" d="M63.65,63.64c-.09-.73-.19-1.44-.33-2.15-.06-.31.33-.43.39-.12.13.71.24,1.42.32,2.15,0,.31-.35.43-.38.12Z"/><path class="cls-16" d="M65.5,59.66a15.05,15.05,0,0,0-.1-1.78c0-.32.37-.4.4-.08a17.46,17.46,0,0,1,.1,1.91c0,.32-.4.26-.4-.05Z"/><path class="cls-16" d="M62.64,52a14,14,0,0,0-.5-2.42c-.09-.29.28-.49.37-.19A13.32,13.32,0,0,1,63,51.88c0,.31-.37.39-.4.07Z"/><path class="cls-16" d="M67.33,56.31c-.1.85-.15,1.7-.17,2.55,0,.31-.4.25-.39-.06,0-.86.07-1.7.16-2.55,0-.31.43-.25.4.06Z"/><path class="cls-16" d="M65.89,56.56a13.93,13.93,0,0,0-.07-2.42c0-.32.36-.4.4-.08a15.5,15.5,0,0,1,.07,2.55c0,.32-.41.26-.4,0Z"/><path class="cls-16" d="M64.61,55.85a6.47,6.47,0,0,0-.37-2.2c-.09-.29.27-.5.37-.21a7.39,7.39,0,0,1,.4,2.44c0,.32-.4.28-.4,0Z"/><path class="cls-16" d="M65.1,64.89a14.84,14.84,0,0,0-.29-2.4c-.06-.31.33-.43.39-.12a15.32,15.32,0,0,1,.3,2.54c0,.31-.39.3-.4,0Z"/><path class="cls-16" d="M67.94,52.51a9.42,9.42,0,0,0-.16,1.59c0,.32-.4.34-.4,0a10.89,10.89,0,0,1,.16-1.72c.06-.31.45-.21.4.1Z"/><path class="cls-16" d="M64.88,51.05a13.82,13.82,0,0,0-.25-3.34c-.06-.31.33-.45.39-.14A14.79,14.79,0,0,1,65.28,51c0,.32-.42.34-.4,0Z"/><path class="cls-16" d="M67.69,51c0-1.13.12-2.26.23-3.39,0-.31.43-.25.4.06-.11,1.13-.19,2.26-.23,3.39,0,.32-.41.25-.4-.06Z"/><path class="cls-16" d="M66,53c0-.69,0-1.39.07-2.09,0-.31.41-.34.4,0,0,.69,0,1.39-.07,2.09,0,.31-.41.34-.4,0Z"/><path class="cls-16" d="M63.92,52.15a7.68,7.68,0,0,0-.3-1.53c-.09-.3.29-.45.38-.15a8.32,8.32,0,0,1,.33,1.65.21.21,0,1,1-.41,0Z"/><path class="cls-16" d="M66.29,49.32l.06-1.24c0-.32.42-.28.4,0s0,.82,0,1.24-.42.28-.41,0Z"/><path class="cls-16" d="M63,54.79c-.08-.4-.17-.79-.26-1.19s.33-.42.39-.12.18.79.26,1.19-.32.42-.39.12Z"/><path class="cls-16" d="M68.66,54.63c.08-.41.15-.82.23-1.22s.45-.22.39.09-.15.81-.23,1.22-.45.22-.39-.09Z"/><path class="cls-16" d="M66.84,70.14l.09-1.24c0-.32.42-.28.4,0l-.09,1.23c0,.32-.42.28-.4,0Z"/><path class="cls-16" d="M68.75,56.45a7,7,0,0,0-.35,2.27c0,.32-.4.29-.4,0a7.5,7.5,0,0,1,.37-2.41c.09-.3.47-.14.38.16Z"/><path class="cls-16" d="M68.58,60.51a11.26,11.26,0,0,0-.51,2.94c0,.32-.42.34-.41,0a11.83,11.83,0,0,1,.53-3.07c.1-.3.49-.19.39.11Z"/><path class="cls-16" d="M64.23,58.83a18.3,18.3,0,0,0-.53-2.53.21.21,0,1,1,.4-.12,13.45,13.45,0,0,1,.53,2.66c0,.32-.39.3-.4,0Z"/><path class="cls-16" d="M66.73,64.83a14.11,14.11,0,0,1,0-1.72c0-.31-.38-.32-.4,0a12.34,12.34,0,0,0,0,1.72c0,.32.43.32.41,0Z"/><path class="cls-16" d="M67.59,67.41c0-.72.08-1.44.16-2.16,0-.32-.36-.4-.4-.09-.08.72-.13,1.44-.15,2.17,0,.31.38.4.39.08Z"/><path class="cls-16" d="M69.45,59.46a16.92,16.92,0,0,1,.41-1.74c.09-.3-.29-.45-.38-.15a17.43,17.43,0,0,0-.43,1.87c-.06.31.34.33.4,0Z"/><path class="cls-16" d="M73.64,51.5a13.2,13.2,0,0,1,1.53-1.94c.22-.22,0-.56-.24-.34a13.81,13.81,0,0,0-1.61,2c-.18.27.14.51.32.25Z"/><path class="cls-16" d="M70.56,53.67a6.54,6.54,0,0,1,1-2c.17-.25-.12-.55-.3-.3a7.64,7.64,0,0,0-1.06,2.23c-.09.31.31.38.4.08Z"/><path class="cls-16" d="M70.55,51a10.73,10.73,0,0,1,1.09-2.77c.14-.28-.18-.53-.33-.25a11.38,11.38,0,0,0-1.14,2.88c-.08.31.3.45.38.14Z"/><path class="cls-16" d="M72.27,50.46a8.18,8.18,0,0,1,.9-1.28c.2-.23-.09-.52-.29-.29a8,8,0,0,0-1,1.39c-.16.27.2.46.35.18Z"/><path class="cls-16" d="M70.29,56.34c.12-.39.25-.77.37-1.16s-.28-.45-.38-.16-.25.78-.37,1.16.28.46.38.16Z"/><path class="cls-16" d="M65.9,69a22.07,22.07,0,0,1,0-2.3c0-.32.41-.28.4,0a22.32,22.32,0,0,0,0,2.31c0,.31-.4.28-.4,0Z"/><path class="cls-16" d="M66.46,61.53c0-.36,0-.73,0-1.09s.42-.25.4.07,0,.64,0,1-.4.37-.4.05Z"/><path class="cls-16" d="M69.3,51.54a9.63,9.63,0,0,1,.45-2.46c.12-.28-.21-.54-.33-.25a10.6,10.6,0,0,0-.53,2.7c0,.32.37.32.41,0Z"/><path class="cls-16" d="M62.31,55.66a13.64,13.64,0,0,1,.55,1.75c.09.3.45.14.37-.16a13.64,13.64,0,0,0-.55-1.75c-.11-.29-.48-.13-.37.16Z"/><path class="cls-16" d="M61.31,51.76a9.92,9.92,0,0,1,.39,1.54c0,.32.45.28.4,0a9.5,9.5,0,0,0-.42-1.67c-.11-.3-.48-.14-.37.16Z"/><path class="cls-16" d="M60.49,51.78c-.44-1-.91-2.06-1.42-3.08-.14-.28-.49-.08-.35.2.51,1,1,2,1.42,3.08.13.29.47.09.35-.2Z"/><path class="cls-16" d="M61.3,49.9c-.09-.41-.17-.81-.26-1.21s-.45-.21-.39.1.18.8.26,1.21.46.21.39-.1Z"/><path class="cls-16" d="M65,67q-.06-.62-.15-1.23c0-.31-.43-.25-.39.06L64.63,67c0,.32.43.25.39-.06Z"/><path class="cls-16" d="M60.55,54.71a7.11,7.11,0,0,1,1,2.07c.1.3.47.16.38-.14a7.58,7.58,0,0,0-1.08-2.19c-.17-.25-.49,0-.31.26Z"/><path class="cls-16" d="M63,59.71c-.06-.36-.13-.72-.21-1.07s-.45-.17-.38.13.13.63.19.95.45.31.4,0Z"/><path class="cls-16" d="M71.76,54c.2-.3.4-.61.59-.92s-.21-.44-.37-.17-.34.55-.52.82.12.53.3.27Z"/><path class="cls-16" d="M65.05,61.13q-.06-.54-.15-1.08c-.05-.32-.43-.2-.38.11s.09.64.12,1,.44.33.41,0Z"/><path class="cls-16" d="M63.66,48.65c-.06-.37-.13-.72-.21-1.08s-.45-.17-.38.13.13.63.18.95.46.31.41,0Z"/><path class="cls-16" d="M60.16,53.43c-.19-.32-.38-.63-.59-.93s-.48,0-.3.26.35.54.51.82.54.12.38-.15Z"/><path class="cls-16" d="M58.29,51.53A9.35,9.35,0,0,0,56.7,49.6c-.25-.19-.08-.57.17-.39a10.89,10.89,0,0,1,1.77,2.11c.19.26-.16.46-.35.21Z"/><circle class="cls-6" cx="97.09" cy="85.86" r="7.97"/><circle class="cls-6" cx="85.19" cy="99.07" r="6.6"/></g></g></g></g></svg>