<svg xmlns="http://www.w3.org/2000/svg" xmlns:xlink="http://www.w3.org/1999/xlink" viewBox="0 0 150 150"><defs><style>.cls-1{fill:#82c841;}.cls-2{isolation:isolate;}.cls-3{clip-path:url(#clip-path);}.cls-4{mix-blend-mode:multiply;}.cls-5{fill:#fff;}.cls-6{fill:#ffe1e3;}.cls-7{fill:#fbd3d4;}.cls-8{fill:#ffdabb;}.cls-9{fill:#1d1f21;}.cls-10{fill:#edbec1;}.cls-11{fill:#ff8566;}.cls-12{fill:#293b4c;}</style><clipPath id="clip-path"><circle class="cls-1" cx="75" cy="75" r="75"/></clipPath></defs><g class="cls-2"><g id="レイヤー_2" data-name="レイヤー 2"><g id="date"><circle class="cls-1" cx="75" cy="75" r="75"/><g class="cls-3"><g class="cls-4"><path class="cls-1" d="M7.85,131.59c.82,1.88,8.73,3,11.33,3.26a65.47,65.47,0,0,0,9.48.75c2.55-.12,16.43,1,33.74-2,2.35-.4,9.65-1.3,11.72-2.67a2.29,2.29,0,0,0-.67-4c-2.1-.82-11.75-1.72-14.45-1.73q-17.56-.14-35.11.85c-3,.16-11.89.42-14.21,1.86C8.27,128.81,7.29,130.27,7.85,131.59Z"/></g><path class="cls-5" d="M30.91,126.58c1.1-1.24,4.21-.69,4.16-2.35-.07-2.24-2.15-3.58-3.19-6.59a8.94,8.94,0,0,1-.39-4.41,7.39,7.39,0,0,1,2.2-3.91,19.55,19.55,0,0,0,8.18,11.19,17.57,17.57,0,0,0,5.29,2.21,7.5,7.5,0,0,1-.81,2.39c-1.53,2.71-6.51,5.44-11.23,5.46-1.08,0-3.15-.29-3.91-1.06A2.24,2.24,0,0,1,30.91,126.58Z"/><path class="cls-5" d="M62.91,119.54a20.05,20.05,0,0,0,6.84-11.13,7.7,7.7,0,0,1,3.11,4.31,7.45,7.45,0,0,1-1.63,7.45c-1.32,1.39-2.63,3.68-1.48,5.22.82,1.09,2.67,1.39,3.15,2.65.39,1-.73,3.27-5,2.46A13.11,13.11,0,0,1,59.55,125a12,12,0,0,1-1.23-2.91A16.64,16.64,0,0,0,62.91,119.54Z"/><path class="cls-5" d="M78.66,86.69c-2.24,3.56-6,6.18-10.27,5.3a31.46,31.46,0,0,1,1.92,7.93C81.19,100.47,83.38,91,83.72,90,85.05,86.14,80.81,83.27,78.66,86.69Z"/><path class="cls-5" d="M33.09,101.18a27.54,27.54,0,0,1,3.49-9.53c-6.09,5-11.27,5.65-14.06,7.82-3,2.37-2,6.27,2.79,6.08a18.07,18.07,0,0,0,7.6-2A17.36,17.36,0,0,1,33.09,101.18Z"/><path class="cls-5" d="M39.13,87.52c3.21,1.13,7.35,1.81,13.21,1.79A40,40,0,0,0,66.11,87a34.46,34.46,0,0,1,4.26,13.45c.59,7.08-1.87,14.66-7.46,19.06a18.73,18.73,0,0,1-21,1,20,20,0,0,1-8.78-19.33C33.8,96.2,36.31,91.73,39.13,87.52Z"/><path class="cls-6" d="M62.74,104.42c0,7.51-4.91,13.6-11,13.6s-11-6.09-11-13.6,4.92-13.6,11-13.6S62.74,96.91,62.74,104.42Z"/><path class="cls-5" d="M26.45,59.66a25.15,25.15,0,0,1,5.13-8.61,26.73,26.73,0,0,1,12-7.47c7.21-2.19,15.79-1.65,22.39,2s10.91,8.8,13.15,17.57a20.46,20.46,0,0,1-4.7,18.6c-3.51,3.87-10.66,7.51-22.06,7.57s-16.3-2.54-20.44-6C25.11,77.53,23.51,68.06,26.45,59.66Z"/><path class="cls-5" d="M77.45,15.29C73.12,13.41,69.58,18.45,67.2,25,65,31.2,63.59,34.21,61.58,43.7A24.89,24.89,0,0,1,66,45.57a27.4,27.4,0,0,1,5.31,3.73c3.08-3.49,7.11-9.76,8.5-15.27C81.54,27,81.78,17.16,77.45,15.29Z"/><path class="cls-7" d="M66,45.57a30.27,30.27,0,0,1,2.81,1.75A26.5,26.5,0,0,0,73,41a68.13,68.13,0,0,0,3.58-10.17c1-3.31,2.12-9.39.5-10.12s-4.54,5-6,8A93.52,93.52,0,0,0,64.75,45C65.16,45.15,65.56,45.35,66,45.57Z"/><path class="cls-5" d="M42.94,43.79C40.42,33.2,34.72,16.06,28.33,15.17A3.63,3.63,0,0,0,25,17.05a9.24,9.24,0,0,0-1.12,3.84c-1.18,10,2.5,21,9.12,28.75A26.79,26.79,0,0,1,42.94,43.79Z"/><path class="cls-7" d="M35.4,47.64a26.77,26.77,0,0,1,3.76-2.29c-2.46-6.88-5.43-12.71-8.78-19.59-.34-.68-2.48-5.42-3.81-4.57s.75,8.35,1.17,9.82C29.26,36.2,32,43,35.4,47.64Z"/><path class="cls-8" d="M59.44,72.39c0,8.17-12.5,8.19-13.3,1C45.11,64.29,59.48,63.3,59.44,72.39Z"/><path class="cls-9" d="M56.3,73.58a1.46,1.46,0,0,1-2.49.61,2.56,2.56,0,0,1-.67-1.75c-.13,0-.25,0-.38,0a2.3,2.3,0,0,1-.26,0,2.93,2.93,0,0,1-.69,1.75c-.73.72-2.39.7-2.58-.51-.06-.36-.61-.21-.55.15.21,1.28,1.82,1.7,2.86,1.22a2.31,2.31,0,0,0,1.25-1.44A2.5,2.5,0,0,0,54,75a2,2,0,0,0,2.89-1.26C56.92,73.37,56.37,73.22,56.3,73.58Z"/><path class="cls-9" d="M54.89,70.13c-.53-1-3.67-1.13-4.25,0s.57,2.29,2.12,2.32S55.43,71.11,54.89,70.13Z"/><path class="cls-7" d="M31.14,74c.76-3.27,7.09-1.85,6.84,1.12C37.68,78.88,30.3,77.63,31.14,74Z"/><path class="cls-9" d="M36,66.49c2.43,0,2.44,4,.31,4.29C33.57,71.11,33.28,66.47,36,66.49Z"/><path class="cls-5" d="M36.48,66.8c.88,0,.88,1.45.11,1.55C35.61,68.47,35.51,66.79,36.48,66.8Z"/><path class="cls-7" d="M74.38,74c-.75-3.27-7.08-1.85-6.84,1.12C67.85,78.88,75.23,77.63,74.38,74Z"/><path class="cls-9" d="M69.31,66.49c2.43,0,2.44,4,.31,4.29C66.9,71.11,66.61,66.47,69.31,66.49Z"/><path class="cls-5" d="M69.81,66.8c.88,0,.88,1.45.11,1.55C68.94,68.47,68.84,66.79,69.81,66.8Z"/><path class="cls-10" d="M48,48.56a16.35,16.35,0,0,0-.63-3.05c-.12-.37.35-.61.47-.24a17.63,17.63,0,0,1,.66,3.2c0,.39-.46.48-.5.09Z"/><path class="cls-10" d="M57.13,49.89a16.51,16.51,0,0,0-.62,3c0,.39-.57.43-.53.05a17.81,17.81,0,0,1,.65-3.2c.12-.38.61-.27.5.1Z"/><path class="cls-10" d="M52.15,55.07a18.22,18.22,0,0,0-.22-3c0-.39.44-.51.5-.12a20.22,20.22,0,0,1,.22,3.21c0,.4-.51.35-.5,0Z"/><path class="cls-10" d="M50.19,53.09a8.3,8.3,0,0,0-.46-2.77c-.13-.36.34-.62.46-.26a9.55,9.55,0,0,1,.51,3.07c0,.4-.51.35-.51,0Z"/><path class="cls-10" d="M55,50.91a11.11,11.11,0,0,0-.19,2c0,.39-.51.43-.51,0a13,13,0,0,1,.2-2.16c.08-.39.57-.26.5.13Z"/><path class="cls-10" d="M51.16,48.85a18,18,0,0,0-.31-4.22c-.07-.38.41-.56.49-.18a18.74,18.74,0,0,1,.33,4.37c0,.4-.53.42-.51,0Z"/><path class="cls-10" d="M54.42,47.82c.06-1.43.15-2.84.3-4.26,0-.4.54-.32.5.07q-.21,2.13-.3,4.26c0,.4-.51.32-.5-.07Z"/><path class="cls-10" d="M52.82,50.23l.09-2.62c0-.4.52-.44.5,0l-.09,2.63c0,.4-.52.43-.5,0Z"/><path class="cls-10" d="M49.57,48.58a10.32,10.32,0,0,0-.39-1.93c-.11-.37.37-.56.49-.19a10.43,10.43,0,0,1,.4,2.09c0,.39-.47.42-.5,0Z"/><path class="cls-10" d="M52.45,59.4a9.84,9.84,0,0,0-.06-2c0-.39.46-.49.51-.11A10.8,10.8,0,0,1,53,59.46c0,.39-.54.34-.51-.06Z"/><path class="cls-10" d="M55.84,54.45a10,10,0,0,0-.19,2c0,.38-.51.42-.51,0a10.15,10.15,0,0,1,.2-2.12c.08-.39.57-.27.5.12Z"/><path class="cls-10" d="M52.43,45c0-.52,0-1,.07-1.56s.53-.35.51.05-.06,1-.08,1.56-.52.35-.5,0Z"/><path class="cls-10" d="M48.29,52.12,48,50.62c-.09-.38.41-.53.49-.15l.33,1.5c.08.38-.41.53-.49.15Z"/><path class="cls-10" d="M58.14,51.21c.15-.5.29-1,.44-1.5s.59-.22.48.16-.29,1-.44,1.5-.59.22-.48-.16Z"/><path class="cls-10" d="M58.66,48a17.61,17.61,0,0,1,1.18-4c.16-.36-.28-.64-.44-.28a18.64,18.64,0,0,0-1.23,4.2c-.06.39.43.52.49.13Z"/><path class="cls-10" d="M60.8,47.2a9.38,9.38,0,0,1,.77-1.81c.19-.34-.25-.62-.43-.28a9.61,9.61,0,0,0-.83,2c-.12.38.37.52.49.14Z"/><path class="cls-10" d="M50.54,55.05A9.33,9.33,0,0,1,50.89,57c0,.39.55.39.52,0A10.81,10.81,0,0,0,51,54.89c-.11-.38-.59-.22-.49.16Z"/><path class="cls-10" d="M56.56,48.39a11.77,11.77,0,0,1,.62-3.09c.16-.35-.26-.68-.42-.32a12.86,12.86,0,0,0-.71,3.4c0,.39.45.4.51,0Z"/><path class="cls-10" d="M45.78,48a10.94,10.94,0,0,1,.5,1.95c.07.39.57.35.51,0a12.69,12.69,0,0,0-.54-2.1c-.13-.37-.6-.17-.47.2Z"/><path class="cls-10" d="M44.67,46.73a27.93,27.93,0,0,0-1-2.63c-.14-.37-.6-.16-.46.21.51,1.33.58,1.27,1,2.63.12.37.58.17.46-.21Z"/><path class="cls-10" d="M46.26,45.36c-.11-.51-.22-1-.32-1.53s-.58-.26-.49.13.21,1,.32,1.52.57.27.49-.12Z"/><path class="cls-10" d="M54.29,57.53V56c0-.4-.51-.37-.51,0s0,1,0,1.57.5.37.5,0Z"/><path class="cls-10" d="M49.36,44.61q-.12-.68-.27-1.35c-.08-.39-.56-.22-.47.17s.16.79.23,1.2.57.38.51,0Z"/><path class="cls-11" d="M50.52,75.1a2.16,2.16,0,0,0,2.18-2.4s.65,2.81,2.71,2.4c0,0-.6,2.38-2.51,2.38S50.58,75.19,50.52,75.1Z"/><path class="cls-5" d="M94.77,74.5l5.6-35.62,10.69-8.65s15.52,8.9,15.77,10.68S136.5,77,136.5,77l-9.67,19.85-24.42-7.64Z"/><path class="cls-12" d="M104.9,29.32C98.85,31,94.4,36.33,92,43.69c-6.9,8.05-18.75,16.28-21.28,17-3,.82-1.41.18-4.21.94C58.92,63.68,54.66,72.43,57,81.15c2.28,8.38,9.86,13.67,17.22,12.23l3.69,14.52a5,5,0,0,0,4.46,3.77l6.42.53a2.54,2.54,0,0,0,1.83-.59l1.64-1.4a1.5,1.5,0,0,0,.47-1.56L88.1,92a85.8,85.8,0,0,1,18.1,3.67c5.76,5.15,12.31,7.52,18.37,5.87,12.44-3.39,18.14-22.35,12.72-42.27S117.34,25.94,104.9,29.32Zm18.47,63.34c-8.75,2.38-19.19-8-23.32-23.21s-.4-29.45,8.34-31.83,19.18,8,23.32,23.21S132.11,90.28,123.37,92.66Z"/><path class="cls-12" d="M111.91,57.39c-3.13.85-4.73,5-3.57,9.24s4.63,7,7.75,6.15,4.73-5,3.58-9.24S115,56.54,111.91,57.39Z"/></g></g></g></g></svg>