<svg xmlns="http://www.w3.org/2000/svg" viewBox="0 0 150 150"><defs><style>.cls-1{isolation:isolate;}.cls-2{fill:#82c841;}.cls-3{mix-blend-mode:multiply;}.cls-4{fill:#7f7b78;}.cls-5{fill:#89837d;}.cls-6{fill:#756f69;}.cls-7{fill:#1d1f21;}.cls-8{fill:#9b948d;}.cls-13,.cls-9{fill:#e8b7b1;}.cls-9{opacity:0.7;}.cls-10{fill:#514a43;}.cls-11{fill:#e8e8e8;}.cls-12{fill:#fff;}.cls-14{fill:#f5823c;}</style></defs><g class="cls-1"><g id="レイヤー_2" data-name="レイヤー 2"><g id="date"><circle class="cls-2" cx="75" cy="75" r="75"/><g class="cls-3"><path class="cls-2" d="M96.09,117.28c-7.46-.35-13.74-1.44-22.38-1.06s-2,0-16.44,1.86a15,15,0,0,0-5.4,1.4c-1.56.88-2.62,2.56-1.92,4,.81,1.67,3.4,2,5.56,2.43,15.7,3.18,29.53,3.67,48.15,1.85,5.17-.5,13.69-1.2,14-4.22S104,117.66,96.09,117.28Z"/></g><path class="cls-4" d="M97.14,77.49c4.26-1.09,4.24,6.77,8.72,11.32,3.85,3.92,9,4.5,9.15,7.16.33,4.53-12.86,5.14-18.27-3.23C93.08,87.09,92.89,78.59,97.14,77.49Z"/><path class="cls-5" d="M46.07,58.94C36,40.19,17.24,42.42,9.82,46.19c15.45,6.49,4.56,30.7,14.56,51.51,11.2,23.32,34,16.63,47.09,14.22C47.11,98.4,59.17,83.32,46.07,58.94Z"/><path class="cls-6" d="M57.14,98c-7.06,7-16.47,10-24.12,11,5.6,4.41,12.14,5.76,18.57,5.75a35.54,35.54,0,0,0,11.08-9.07A25.45,25.45,0,0,1,57.14,98ZM51.75,73.89c-7.85,12-20.57,15.18-30.22,15.94a42.53,42.53,0,0,0,2.85,7.87c.32.67.65,1.31,1,1.93C38.29,100,48.67,93,54.29,88.12,53.52,83.77,53,79.07,51.75,73.89ZM46.11,59a.59.59,0,0,0,0-.08,31.08,31.08,0,0,0-7.48-9.36C35.14,59.67,26.82,66,19.26,69.27c.11,2.9.22,5.93.46,9C34.46,76.25,42.46,65.7,46.11,59Zm-18-14.66A28.27,28.27,0,0,0,9.82,46.19c5.23,2.2,7.43,6.43,8.46,11.86C22.1,55.79,25.69,51.9,28.07,44.36Z"/><path class="cls-7" d="M89.72,119c-.23,3.1,17.23,6.8,18,3.73C109.08,116.71,89.94,115.9,89.72,119Z"/><path class="cls-6" d="M95.36,120.38c11.56.53,17.32-13.45,9.61-20.11a11.72,11.72,0,0,0-18.73,4.79C84,111.73,86.74,120,95.36,120.38Z"/><path class="cls-8" d="M97.41,71.11A52.86,52.86,0,0,1,68.7,69.73C65.76,80,57,89.33,59.28,104.32c1.26,8.25,3.94,16.88,21.21,16.57,18.45-.33,24.12-14.36,23.36-26.29A57.78,57.78,0,0,0,97.41,71.11Z"/><path class="cls-9" d="M97.41,71.11a51.74,51.74,0,0,1-10.58,1.32c-.73,7.77-4.07,21-4.1,30.85,0,10.43,8,15.69,13.42,12.32,6.13-5.24,8.18-13.53,7.7-21A57.78,57.78,0,0,0,97.41,71.11Z"/><path class="cls-6" d="M105.68,30a29.18,29.18,0,0,1,8.59,10c6.73-7.7,6-17.9,5.11-18.68s-9.69-.44-17.25,6.43A31.32,31.32,0,0,1,105.68,30Z"/><path class="cls-10" d="M112.05,36.4c3-3.7,3.62-9.48,3.26-9.92s-5.28-.11-9.38,3.73A29.93,29.93,0,0,1,112.05,36.4Z"/><path class="cls-6" d="M60.92,34.91A38.73,38.73,0,0,1,69.51,28c.26-.15.53-.28.8-.42C63.76,21,53.17,20.35,52.37,21.14c-1.19,1.17-.72,11.66,4.89,18.35A37.11,37.11,0,0,1,60.92,34.91Z"/><path class="cls-10" d="M60.92,34.91a40.46,40.46,0,0,1,5.65-5c-4.13-3.8-8.87-4.44-9.53-4s-.6,6,2.76,10.23C60.16,35.73,60.54,35.32,60.92,34.91Z"/><path class="cls-11" d="M122.78,54A16.15,16.15,0,0,1,117,51.26,5.58,5.58,0,0,0,121.18,49c-2-1.41-2.68-2.14-4.73-3-.06-.3-.13-.6-.2-.89A27.82,27.82,0,0,0,105.68,30a33.73,33.73,0,0,0-36.17-2,38.73,38.73,0,0,0-8.59,6.92A31,31,0,0,0,54.06,46.5c-2.51.85-3.84,2.09-5,2.57,0,.35,1,2,4.28,2.75,0,0-3.91,2.11-6.78,2.2a11.29,11.29,0,0,0,7.25,3.35c-.62.89-3.23,1-3.5,1.64C52.89,60.33,64,72.47,85.53,72.47c20.92,0,31.71-11.56,34.54-13.46-1.24-1.24-2.73-1.29-3.59-1.64C118.56,57.17,121.89,55.46,122.78,54Z"/><path class="cls-8" d="M106.51,51.15c-5.1-2.66-8.79-.85-10.58,1.72s-.69,6.08,1.6,8.07c1.24,1.08,5.51,2.91,8.72,7.17a49.36,49.36,0,0,0,8.56-5C113.89,58.9,110.38,53.16,106.51,51.15Z"/><path class="cls-8" d="M66.88,69.07a36.69,36.69,0,0,1,6.83-8.13c2.29-2,3.38-5.48,1.59-8.07s-5.71-4.78-10.58-1.72c-4.33,2.72-6.87,8.58-7.32,13A50.55,50.55,0,0,0,66.88,69.07Z"/><path class="cls-8" d="M116.34,45.49l-.09-.39A27.82,27.82,0,0,0,105.68,30a33.73,33.73,0,0,0-36.17-2,38.73,38.73,0,0,0-8.59,6.92,35.2,35.2,0,0,0-7.34,11.63s8.1-6.25,20.17.38c8.48,4.67,9.84,12.56,11.37,15.86,2.29-6.87,3.81-11.78,12-17,5.72-3.62,13.58-4,19.16-.21A.75.75,0,0,1,116.34,45.49Z"/><path class="cls-7" d="M69.75,52.8c2.49,0,2.49,4.12.31,4.39C67.28,57.53,67,52.79,69.75,52.8Z"/><path class="cls-12" d="M70.26,53.12c.9,0,.9,1.49.11,1.58C69.37,54.83,69.26,53.11,70.26,53.12Z"/><path class="cls-7" d="M101.35,52.8c2.49,0,2.49,4.12.31,4.39C98.89,57.53,98.59,52.79,101.35,52.8Z"/><path class="cls-12" d="M101.86,53.12c.9,0,.9,1.49.11,1.58C101,54.83,100.86,53.11,101.86,53.12Z"/><path class="cls-13" d="M111.12,57.73c0-3.79-7.33-3.8-7.8-.47C102.71,61.49,111.14,61.94,111.12,57.73Z"/><path class="cls-13" d="M60.35,58c0-3.8,7.34-3.81,7.81-.48C68.76,61.79,60.33,62.25,60.35,58Z"/><path class="cls-7" d="M89.46,61c.07-1.4-1.68-3.2-4.39-3s-4.25,1.48-4,3.22S83.13,64,85.33,64C88,64,89.39,62.42,89.46,61Z"/><path class="cls-7" d="M91.22,66.85a2.48,2.48,0,0,1-4.21,1c-.84-.82-1.1-2.08-1.1-3.94-.19,0-.38,0-.58,0l-.27,0c-.1,1.34-.24,2.93-1.24,3.93-1.23,1.21-4,1.17-4.36-.88-.09-.53-.89-.31-.81.22.34,2.1,3,2.77,4.66,2a3.9,3.9,0,0,0,2.07-2.41,4.15,4.15,0,0,0,1.94,2.3A3.22,3.22,0,0,0,92,67.07C92.14,66.54,91.33,66.32,91.22,66.85Z"/><path class="cls-7" d="M65.65,121.67c-.22,3.1,17.23,6.8,17.95,3.73C85,119.38,65.87,118.57,65.65,121.67Z"/><path class="cls-4" d="M71.29,123.05c11.56.53,17.32-13.45,9.62-20.11a11.73,11.73,0,0,0-18.73,4.79C59.89,114.4,62.67,122.66,71.29,123.05Z"/><path class="cls-14" d="M115.78,67.47a1.9,1.9,0,0,0-1.63,0l-6.7,3.4a1.87,1.87,0,0,0-.77.73l-2.4,4.16a1.86,1.86,0,0,1-3.21,0l-2.4-4.16a1.84,1.84,0,0,0-.76-.73l-6.71-3.4a1.9,1.9,0,0,0-1.63,0l-6.73,3.17a1.86,1.86,0,0,0-1.06,1.68V84a1.86,1.86,0,0,0,.55,1.32l19,18.79a1.85,1.85,0,0,0,2.6,0l19-18.79a1.86,1.86,0,0,0,.55-1.32V72.32a1.86,1.86,0,0,0-1.06-1.68Z"/><path class="cls-4" d="M73.84,80.41c3.37-2.82,6.74,4.28,12.74,6.46,5.16,1.88,10,.21,11.34,2.52,2.26,3.94-9.38,10.18-17.88,5C74.31,90.82,70.48,83.23,73.84,80.41Z"/></g></g></g></svg>