<svg xmlns="http://www.w3.org/2000/svg" xmlns:xlink="http://www.w3.org/1999/xlink" viewBox="0 0 150 150"><defs><style>.cls-1{fill:#82c841;}.cls-2{isolation:isolate;}.cls-3{clip-path:url(#clip-path);}.cls-4{fill:#ffd400;}.cls-5{mix-blend-mode:multiply;}.cls-6{fill:#c67f2b;}.cls-7{fill:#db9840;}.cls-8{fill:#f1a953;}.cls-9{fill:#1d1f21;}.cls-10{fill:#a2907d;}.cls-11{fill:#db7240;}.cls-12{fill:#fffff8;}.cls-13{fill:#febf77;}.cls-14{fill:#93511a;}.cls-15{fill:#fff;}.cls-16{fill:none;stroke:#82c841;stroke-linecap:round;stroke-linejoin:round;stroke-width:4px;}</style><clipPath id="clip-path"><circle class="cls-1" cx="75" cy="75" r="75"/></clipPath></defs><g class="cls-2"><g id="レイヤー_2" data-name="レイヤー 2"><g id="date"><circle class="cls-1" cx="75" cy="75" r="75"/><g class="cls-3"><path class="cls-4" d="M85.88,71.18a9.63,9.63,0,0,0,1.66,5.12L85.14,78A12.56,12.56,0,0,1,83,71.31Z"/><g class="cls-5"><path class="cls-1" d="M26.84,143.08c.81,1.88,8.73,3,11.32,3.26a65.58,65.58,0,0,0,9.48.75c2.56-.11,16.43,1,33.74-2,2.35-.4,9.65-1.3,11.73-2.66a2.3,2.3,0,0,0-.67-4c-2.11-.82-11.76-1.71-14.46-1.73q-17.57-.14-35.11.85c-3,.16-11.89.42-14.21,1.87C27.26,140.3,26.27,141.76,26.84,143.08Z"/></g><path class="cls-6" d="M49.52,109.57c-6,4.53-15.92-1.11-18.4-3.13-1.17,3.14-1.34,9.32,5.56,12.36S48.41,115.29,49.52,109.57Z"/><path class="cls-7" d="M69.71,74.79A22.45,22.45,0,0,1,56.8,78.51a25.16,25.16,0,0,1-14.08-3.84c-4.1,6.37-8.13,15.11-8.25,25.69-.14,11.39,5.81,21.8,22.23,21.8S78.8,109.49,78,99C77.45,91.69,73.9,81.58,69.71,74.79Z"/><path class="cls-8" d="M71,100.44c0,9.44-6.53,16-14.57,16s-14.57-6.52-14.57-16S48.35,82.2,56.4,82.2,71,91,71,100.44Z"/><path class="cls-7" d="M90.05,68.42a8.17,8.17,0,0,0-1.39-3.21c-.26,0-4.57,12-15.23,16.85a68,68,0,0,1,3,8.66c11.23-5.34,16.16-18.18,16.7-23.4C92.46,67.5,91,68.06,90.05,68.42Z"/><path class="cls-9" d="M86.74,68.92c1.22-2.19,1.82-3.71,1.92-3.71a8.17,8.17,0,0,1,1.39,3.21c1-.36,2.41-.92,3.11-1.1a21.88,21.88,0,0,1-.85,3.89A12,12,0,0,1,86.74,68.92Z"/><path class="cls-7" d="M62.11,121.64c1.14,8.93,4.45,21.93,5.5,22.11s1.55-1.52,1.75-2.35c.27.68,1.4,2,2.25,1.56s.35-4.3.08-26.08A19.38,19.38,0,0,1,62.11,121.64Z"/><path class="cls-9" d="M66,139.89c.69,2.3,1.3,3.8,1.65,3.86,1.13.19,1.55-1.52,1.75-2.35.27.68,1.4,2,2.25,1.56.36-.21.47-1.12.45-4.12A17.82,17.82,0,0,1,66,139.89Z"/><path class="cls-7" d="M40.51,116.7c-.27,21.94-.73,25.81.07,26.26s2-.88,2.25-1.56c.2.83.62,2.54,1.75,2.35s4.4-13.32,5.53-22.24A19.65,19.65,0,0,1,40.51,116.7Z"/><path class="cls-9" d="M46.23,139.89c-.69,2.3-1.3,3.8-1.65,3.86-1.13.19-1.55-1.52-1.75-2.35-.27.68-1.4,2-2.25,1.56-.36-.21-.46-1.12-.45-4.12A17.82,17.82,0,0,0,46.23,139.89Z"/><path class="cls-10" d="M41,37.44a23.26,23.26,0,0,1,2.72-1.74,9.51,9.51,0,0,1-3.62-1.85,1.87,1.87,0,0,1-.51-.58,1.54,1.54,0,0,1,.22-1.54,10.38,10.38,0,0,1,1.13-1.17,5.85,5.85,0,0,0,1.67-3.91A3,3,0,0,0,42,24.54a1.49,1.49,0,0,0-2-.21,2.29,2.29,0,0,0-.56,1.17c-.27,1.05-.55,2.1-.82,3.16a1.7,1.7,0,0,1-.71,1.19,1.13,1.13,0,0,1-1.27-.31A2.93,2.93,0,0,1,36,28.28c-.92-3.6-.45-6.9-.65-10.61-.16-2.85-1.48-3.54-2.24-3.27C31.5,15,31.4,17,31.4,18.7c0,2.06,1.29,4.9,0,5.74s-3.27-1.32-3.94-2.37a6,6,0,0,0-1.37-1.8c-.62-.43-1.66-.4-2,.3a1.6,1.6,0,0,0-.06.87,6.57,6.57,0,0,0,2.36,3.79,11.05,11.05,0,0,0,2.64,1.68A12.74,12.74,0,0,1,33,29.26a14,14,0,0,1,2.32,3.56A11.35,11.35,0,0,0,41,37.44Z"/><path class="cls-10" d="M87.52,18.67a2.08,2.08,0,0,0-1.88.5c-.52.44-2,3-4.46,4.07-.4.17-.93.4-1.23.1-.84-.85,1.57-8.06-1.4-8.71-.43-.1-2.13.69-2,4.23.09,1.84.48,5,0,7.23-.37,1.7-.91,4-2.24,3.9s-.64-2.53-.78-3.56A4.32,4.32,0,0,0,73.18,25,1.46,1.46,0,0,0,72,24.12a1.43,1.43,0,0,0-1,.44,3.64,3.64,0,0,0-.72,2.91,19.64,19.64,0,0,0,.83,4.36,4.15,4.15,0,0,1,.28,1.39,3.09,3.09,0,0,1-1,1.93,5.41,5.41,0,0,1-1.16.85,23.09,23.09,0,0,1,2,1.38,15.4,15.4,0,0,0,7.22-7.5,6,6,0,0,1,3.57-3.4c4.18-1.67,5.76-3.92,6.09-4.86C88.54,20.18,88.46,19,87.52,18.67Z"/><path class="cls-7" d="M79.71,54.42C79,41.89,69.79,32.55,56.45,32.55s-24,9.07-24,21.87c0,11,6.85,24.09,24.31,24.09S80.19,62.78,79.71,54.42Z"/><path class="cls-6" d="M77,44.51c-3.74-7.23-11.11-12-20.59-12S38.81,37.16,34.92,44.44C45,42.18,53.13,49.51,56.08,65.31,57.9,49.15,68.4,42.19,77,44.51Z"/><path class="cls-6" d="M21.94,32.25a1.77,1.77,0,0,0-1.25.23,1.61,1.61,0,0,0-.41,1.35c.12,3.59,3,13.33,14.64,10.61a21,21,0,0,1,3-4.17A26.17,26.17,0,0,0,21.94,32.25Z"/><path class="cls-8" d="M36.42,42.06c-4.09-2.88-8.93-5.5-13.75-6.44-.05,3.05,3.74,9.6,12.72,8C35.71,43.1,36.05,42.57,36.42,42.06Z"/><path class="cls-6" d="M90,32.33a1.69,1.69,0,0,1,1.25.23,1.66,1.66,0,0,1,.41,1.34c-.13,3.6-3,13.34-14.65,10.61a20.67,20.67,0,0,0-3-4.16C78.13,36.07,84.22,32.8,90,32.33Z"/><path class="cls-8" d="M75.54,42c.36.52.69,1.06,1,1.61,9,1.56,12.75-5,12.7-8C84.44,36.55,79.62,39.16,75.54,42Z"/><path class="cls-11" d="M77.7,64.13c0-3.88-6.7-3.89-7.14-.49C70,68,77.72,68.44,77.7,64.13Z"/><path class="cls-11" d="M34.61,64.13c0-3.88,6.7-3.89,7.13-.49C42.29,68,34.59,68.44,34.61,64.13Z"/><path class="cls-9" d="M40.52,58.37c2.54,0,2.55,4.22.32,4.49C38,63.21,37.69,58.36,40.52,58.37Z"/><path class="cls-12" d="M41,58.7c.92,0,.92,1.52.12,1.62C40.13,60.44,40,58.69,41,58.7Z"/><path class="cls-9" d="M72.11,58.37c2.55,0,2.55,4.22.32,4.49C69.6,63.21,69.29,58.36,72.11,58.37Z"/><path class="cls-12" d="M72.64,58.7c.91,0,.92,1.52.11,1.62C71.73,60.44,71.62,58.69,72.64,58.7Z"/><path class="cls-13" d="M63.71,64.67c0,7-14.22,7-15.14.87C47.41,57.77,63.75,56.93,63.71,64.67Z"/><path class="cls-9" d="M59,61.24c0,2.54-5.4,2.55-5.75.32C52.81,58.72,59,58.42,59,61.24Z"/><path class="cls-9" d="M60.63,65.35c-.62,1.27-2.06,2-3.24.94-.89-.81-.89-2-.9-3.12a4.7,4.7,0,0,1-.75,0,3.94,3.94,0,0,1-.9,3.11c-1.18,1.07-2.62.33-3.24-.94-.21-.43-.86,0-.65.38a2.8,2.8,0,0,0,3.77,1.55,2.89,2.89,0,0,0,1.39-1.59,3,3,0,0,0,1.39,1.59,2.79,2.79,0,0,0,3.77-1.55C61.48,65.3,60.84,64.92,60.63,65.35Z"/><path class="cls-14" d="M54.77,58.64a13.22,13.22,0,0,0-.08-1.89c0-.34.41-.37.45,0a17,17,0,0,1,.08,1.89c0,.35-.45.37-.45,0Z"/><path class="cls-14" d="M53.32,51.06c-.09-.8-.21-1.58-.36-2.36-.06-.34.36-.47.43-.13.15.78.27,1.56.36,2.35,0,.35-.39.48-.43.14Z"/><path class="cls-14" d="M55.36,46.69c0-.66,0-1.31-.1-2,0-.34.4-.43.43-.08a18.29,18.29,0,0,1,.11,2.09c0,.35-.44.29-.44-.05Z"/><path class="cls-14" d="M52.21,38.23a14.76,14.76,0,0,0-.54-2.66c-.11-.32.3-.53.4-.21a14.4,14.4,0,0,1,.58,2.79c0,.34-.4.42-.44.08Z"/><path class="cls-14" d="M57.37,43c-.1.93-.16,1.85-.18,2.79,0,.35-.44.27-.44-.07q0-1.4.18-2.79c0-.35.48-.28.44.07Z"/><path class="cls-14" d="M55.79,43.29a15.71,15.71,0,0,0-.08-2.66c0-.35.4-.43.44-.09a17.44,17.44,0,0,1,.08,2.8c0,.35-.45.29-.44-.05Z"/><path class="cls-14" d="M54.38,42.5a7.21,7.21,0,0,0-.4-2.41c-.11-.31.29-.54.4-.22a8,8,0,0,1,.44,2.67c0,.35-.43.31-.44,0Z"/><path class="cls-14" d="M54.92,52.43a18.1,18.1,0,0,0-.31-2.64c-.07-.34.35-.47.42-.13a18.48,18.48,0,0,1,.33,2.79c0,.34-.43.33-.44,0Z"/><path class="cls-14" d="M58,38.84a10.27,10.27,0,0,0-.17,1.75c0,.34-.44.38-.44,0a10.9,10.9,0,0,1,.18-1.89c.06-.34.49-.23.43.11Z"/><path class="cls-14" d="M54.67,37.24a15,15,0,0,0-.27-3.67c-.06-.33.36-.49.43-.15a16.07,16.07,0,0,1,.28,3.8c0,.35-.45.37-.44,0Z"/><path class="cls-14" d="M57.77,37.14c0-1.24.13-2.48.25-3.72,0-.34.48-.28.44.07-.12,1.24-.21,2.47-.25,3.72,0,.34-.45.27-.44-.07Z"/><path class="cls-14" d="M55.94,39.37c0-.76.05-1.53.08-2.29,0-.35.45-.38.44,0,0,.76-.05,1.53-.08,2.29,0,.35-.45.38-.44,0Z"/><path class="cls-14" d="M53.63,38.45a8.58,8.58,0,0,0-.34-1.69c-.1-.32.33-.48.42-.16a8.63,8.63,0,0,1,.36,1.82.22.22,0,1,1-.44,0Z"/><path class="cls-14" d="M56.23,35.34c0-.45.05-.9.07-1.36s.46-.3.44,0,0,.91-.07,1.36-.45.31-.44,0Z"/><path class="cls-14" d="M52.61,41.35c-.09-.44-.19-.88-.28-1.31s.36-.47.43-.13.19.87.28,1.3-.35.47-.43.14Z"/><path class="cls-14" d="M58.84,41.17c.08-.45.16-.9.25-1.34s.49-.24.43.1-.17.89-.25,1.34-.5.24-.43-.1Z"/><path class="cls-14" d="M56.84,58.19l.09-1.36a.22.22,0,1,1,.44,0l-.09,1.36a.22.22,0,1,1-.44,0Z"/><path class="cls-14" d="M58.93,43.16a8.11,8.11,0,0,0-.39,2.5c0,.35-.44.32-.44,0A8.67,8.67,0,0,1,58.51,43c.11-.32.53-.15.42.17Z"/><path class="cls-14" d="M58.75,47.62a12.66,12.66,0,0,0-.57,3.23c0,.35-.46.37-.44,0a12.8,12.8,0,0,1,.58-3.37c.11-.33.54-.21.43.12Z"/><path class="cls-14" d="M54,45.78A20.72,20.72,0,0,0,53.39,43a.23.23,0,1,1,.43-.14,14.63,14.63,0,0,1,.58,2.92c0,.35-.42.33-.44,0Z"/><path class="cls-14" d="M56.71,52.36a11.8,11.8,0,0,1,0-1.88c0-.35-.42-.35-.45,0a14.74,14.74,0,0,0,0,1.88c0,.35.47.36.45,0Z"/><path class="cls-14" d="M57.66,55.2c0-.8.09-1.59.17-2.38,0-.34-.39-.44-.43-.09-.09.79-.15,1.58-.17,2.37,0,.35.42.45.43.1Z"/><path class="cls-14" d="M59.7,46.47c.12-.65.27-1.28.45-1.91.1-.33-.32-.49-.41-.16a20.33,20.33,0,0,0-.48,2.05c-.06.34.38.36.44,0Z"/><path class="cls-14" d="M64.31,37.74A14.59,14.59,0,0,1,66,35.61c.24-.24,0-.62-.26-.38A16.12,16.12,0,0,0,64,37.46c-.19.29.17.56.36.28Z"/><path class="cls-14" d="M60.92,40.11A7.34,7.34,0,0,1,62,37.91c.19-.27-.13-.6-.33-.33A8.24,8.24,0,0,0,60.49,40c-.1.33.33.42.43.08Z"/><path class="cls-14" d="M60.91,37.22a12,12,0,0,1,1.2-3c.16-.3-.2-.57-.36-.27a12.64,12.64,0,0,0-1.26,3.17c-.08.33.33.48.42.15Z"/><path class="cls-14" d="M62.81,36.6a8.24,8.24,0,0,1,1-1.41c.22-.25-.1-.57-.32-.32a9,9,0,0,0-1.06,1.52c-.16.31.23.51.4.21Z"/><path class="cls-14" d="M60.62,43.05c.14-.43.28-.85.41-1.28s-.31-.49-.41-.17-.28.85-.41,1.27.31.5.41.18Z"/><path class="cls-14" d="M55.8,57c0-1.25,0-1.29.05-2.53,0-.35.46-.31.44,0a23.69,23.69,0,0,0,0,2.53c0,.34-.44.3-.44,0Z"/><path class="cls-14" d="M56.41,48.75c0-.41,0-.81,0-1.21s.45-.26.44.08,0,.71,0,1.06-.44.41-.44.07Z"/><path class="cls-14" d="M59.53,37.78a10.16,10.16,0,0,1,.51-2.7c.13-.31-.24-.59-.37-.28a11,11,0,0,0-.58,3c0,.35.4.35.44,0Z"/><path class="cls-14" d="M51.85,42.3a14.75,14.75,0,0,1,.61,1.92c.09.33.5.16.41-.17a15.87,15.87,0,0,0-.61-1.92c-.12-.33-.53-.15-.41.17Z"/><path class="cls-14" d="M50.75,38a9.74,9.74,0,0,1,.43,1.69c.06.35.5.31.44,0a10.66,10.66,0,0,0-.46-1.83c-.12-.33-.52-.15-.41.18Z"/><path class="cls-14" d="M49.85,38.05c-.48-1.15-1-2.27-1.56-3.39-.16-.31-.54-.09-.38.22.55,1.11,1.07,2.24,1.56,3.38.13.32.52.1.38-.21Z"/><path class="cls-14" d="M50.74,36c-.09-.45-.19-.89-.28-1.34s-.5-.22-.43.11.19.89.28,1.34.5.23.43-.11Z"/><path class="cls-14" d="M54.84,54.73c-.06-.45-.11-.9-.17-1.36s-.48-.27-.43.07.11.9.16,1.35.48.28.44-.06Z"/><path class="cls-14" d="M49.92,41.26A8.12,8.12,0,0,1,51,43.53c.1.33.52.17.41-.16A8.13,8.13,0,0,0,50.26,41c-.19-.28-.54,0-.34.29Z"/><path class="cls-14" d="M52.63,46.75c-.06-.4-.14-.79-.23-1.18s-.49-.19-.42.14.15.7.21,1,.5.33.44,0Z"/><path class="cls-14" d="M62.24,40.51c.23-.33.44-.67.65-1s-.23-.48-.4-.18-.38.6-.58.89.14.59.33.3Z"/><path class="cls-14" d="M54.86,48.31c0-.4-.09-.8-.16-1.2s-.48-.22-.42.12.1.71.14,1.06.48.36.44,0Z"/><path class="cls-14" d="M53.33,34.6c-.06-.4-.14-.79-.23-1.18s-.49-.19-.41.14.14.7.2,1,.5.33.44,0Z"/><path class="cls-14" d="M49.48,39.85c-.2-.35-.41-.69-.64-1s-.53,0-.33.29.38.59.56.9.59.13.41-.17Z"/><path class="cls-14" d="M47.43,37.76a10.24,10.24,0,0,0-1.75-2.11c-.27-.21-.08-.63.19-.42a11.16,11.16,0,0,1,2,2.31c.2.28-.18.5-.39.22Z"/><path class="cls-15" d="M138.87,60a9.87,9.87,0,0,0-1.4-4.56,9.17,9.17,0,0,0-.55-.83,9.87,9.87,0,0,0-6.49-3.86L79.58,43.38a9.89,9.89,0,0,0-7.32,1.86c-.27.21-.52.41-.77.64a10,10,0,0,0-3.09,5.85L63.23,87.44a9.92,9.92,0,0,0,.24,4,9.78,9.78,0,0,0,1.62,3.32,7.81,7.81,0,0,0,.58.71,9.82,9.82,0,0,0,5.9,3.15L122.42,106a9.83,9.83,0,0,0,6.56-1.35c.26-.16.51-.33.76-.51a9.88,9.88,0,0,0,2.5-2.73h0a9.76,9.76,0,0,0,1.36-3.75l5.18-35.71A10.4,10.4,0,0,0,138.87,60Z"/><path class="cls-7" d="M50.28,76.88c8,8.9,21.27,9,21.36,9.21a8.21,8.21,0,0,1-2.57,2.39c.67.79,1.67,2,2.07,2.56-5.2,1.25-19.35.82-28.08-8.47A47.72,47.72,0,0,0,50.28,76.88Z"/><path class="cls-9" d="M67.5,85.52c2.47.42,4.11.49,4.14.57a8.21,8.21,0,0,1-2.57,2.39c.67.79,1.67,2,2.07,2.56a21.92,21.92,0,0,1-4,.49A11.89,11.89,0,0,1,67.5,85.52Z"/><polyline class="cls-16" points="75.63 50.28 100.73 75.67 131.05 60.49"/></g></g></g></g></svg>