<svg xmlns="http://www.w3.org/2000/svg" viewBox="0 0 9.58 10.68"><defs><style>.cls-1{fill:#f5aa3c;}.cls-2{fill:#f5823c;}.cls-3{fill:#fce5c4;}.cls-4{fill:#292d36;}</style></defs><g id="レイヤー_2" data-name="レイヤー 2"><g id="レイヤー_1-2" data-name="レイヤー 1"><path class="cls-1" d="M1.36,4.1A19.27,19.27,0,0,1,4.51,1.71,3.1,3.1,0,0,1,7.24,0,2.45,2.45,0,0,1,8.37.28c.79.51.85,1.62.8,2.56s.88,2.8.08,5.55a3.66,3.66,0,0,1-1.78,1.86,6.53,6.53,0,0,1-3.87.27A5,5,0,0,1,.22,8.2C-.28,7.29.07,5.28,1.36,4.1Z"/><path class="cls-2" d="M7.24,0A2.45,2.45,0,0,1,8.37.28a1.7,1.7,0,0,1,.69,1.05,1.87,1.87,0,0,0-.63.28,4.89,4.89,0,0,0-.86.78,1.42,1.42,0,0,0-.17-1.1A2,2,0,0,0,6.3.5,4.36,4.36,0,0,0,5.78.39,4.11,4.11,0,0,1,7.24,0Z"/><path class="cls-3" d="M3.6,10.52a4.68,4.68,0,0,1-1.79-.7,3,3,0,0,1,0-2.17A6.54,6.54,0,0,1,4,4.85,4.31,4.31,0,0,1,7.4,4.06,2.81,2.81,0,0,1,9.15,5.4a6.89,6.89,0,0,1,.42.86,7.76,7.76,0,0,1-.32,2.13,3.66,3.66,0,0,1-1.78,1.86A6.53,6.53,0,0,1,3.6,10.52Z"/><path class="cls-2" d="M8.52,5.38c0-.07-.08-.11-.11,0-.11.33-.66.12-.65-.19a.06.06,0,0,0-.12,0C7.62,5.58,8.37,5.85,8.52,5.38ZM6.44,9.06a.31.31,0,0,0,.41-.25.06.06,0,0,0-.12,0c0,.16-.11.22-.28.17a.33.33,0,0,1-.29-.32.06.06,0,1,0-.11,0A.43.43,0,0,0,6.44,9.06ZM4.51,5.2c0,.16-.12.22-.29.18s-.29-.15-.28-.33S3.82,5,3.82,5a.45.45,0,0,0,.39.46c.22.06.35,0,.41-.26S4.53,5.13,4.51,5.2ZM7.22,5c.07,0,0-.14,0-.11a.46.46,0,0,1-.7-.28c0-.07-.14,0-.11,0A.58.58,0,0,0,7.22,5ZM2.39,6.79a.59.59,0,0,0,.87.37c.07,0,0-.14,0-.11a.46.46,0,0,1-.7-.28C2.49,6.7,2.37,6.72,2.39,6.79ZM5.62,4.93c.06,0,0-.14-.08-.09a.48.48,0,0,1-.42.07.34.34,0,0,1-.22-.32c0-.08-.13-.06-.12,0s.1.37.3.41A.61.61,0,0,0,5.62,4.93Zm2,2.83c-.16,0-.2-.17-.22-.32s-.13-.06-.12,0a.42.42,0,0,0,.3.41.59.59,0,0,0,.53-.09.06.06,0,1,0-.07-.09A.48.48,0,0,1,7.63,7.76ZM7.19,6.11c0-.08-.14-.06-.12,0a.73.73,0,0,0,.31.45.52.52,0,0,0,.54-.06c.06-.06,0-.15-.07-.1a.38.38,0,0,1-.45,0A.7.7,0,0,1,7.19,6.11ZM5.94,6a2.1,2.1,0,0,1-.32-.46c0-.07-.15,0-.11,0s.25.51.52.57A.55.55,0,0,0,6.58,6c0-.06,0-.15-.08-.1A.47.47,0,0,1,5.94,6Zm-.75.21A.34.34,0,0,1,4.58,6c0-.07-.14,0-.12,0,.08.38.61.58.83.2C5.33,6.16,5.23,6.09,5.19,6.16Zm2,2c.07,0,0-.14,0-.11s-.44.15-.59-.06-.12-.2-.18-.29-.13,0-.09.07.15.34.31.42A.64.64,0,0,0,7.16,8.13Zm.32.31A.49.49,0,0,0,7.79,9c.18.08.42.14.57,0s0-.13-.09-.07-.38,0-.5,0a.36.36,0,0,1-.17-.38A.06.06,0,0,0,7.48,8.44ZM3.19,5.79a.06.06,0,1,0-.12,0c-.07.49.5.67.86.45.06-.05,0-.14-.08-.1C3.57,6.31,3.14,6.16,3.19,5.79Zm3,.87c0-.08-.1-.09-.11,0-.08.49.49.67.85.44.07,0,0-.13-.08-.09C6.6,7.18,6.16,7,6.21,6.66ZM5.13,9c.07,0,0-.13-.07-.09-.28.17-.72,0-.66-.35,0-.07-.11-.08-.12,0C4.21,9,4.78,9.2,5.13,9Zm2.16.25c-.18.46.57.74.83.39.05-.06,0-.13-.09-.07-.19.25-.76.05-.62-.27C7.44,9.2,7.32,9.15,7.29,9.22ZM1.88,9.15A.3.3,0,0,0,2,9.6a.44.44,0,0,0,.59-.09c0-.06-.05-.13-.09-.07a.34.34,0,0,1-.43.07c-.16-.08-.17-.17-.11-.32S1.91,9.07,1.88,9.15Zm7.35-.92c0-.06-.05-.13-.09-.07a.32.32,0,0,1-.43.07c-.16-.07-.17-.17-.1-.32s-.08-.11-.12,0a.31.31,0,0,0,.15.46A.44.44,0,0,0,9.23,8.23Zm-3.33-1c.07,0,0-.14-.07-.1a.47.47,0,0,1-.72-.23c0-.07-.14,0-.11.05A.59.59,0,0,0,5.9,7.26Zm-1,2.9a.6.6,0,0,0,.91.28c.06,0,0-.14-.08-.1A.47.47,0,0,1,5,10.11C4.94,10,4.83,10.09,4.86,10.16ZM9.34,6.84c.06,0,0-.15-.08-.09a.33.33,0,0,1-.37.1.47.47,0,0,1-.28-.32c0-.08-.13-.06-.12,0A.59.59,0,0,0,8.85,7,.42.42,0,0,0,9.34,6.84ZM2,7.7a.6.6,0,0,0,.35.42A.45.45,0,0,0,2.88,8c.06-.06,0-.15-.08-.1A.33.33,0,0,1,2.42,8a.48.48,0,0,1-.27-.33C2.14,7.6,2,7.63,2,7.7Zm1.9-.32a.68.68,0,0,0,.53-.14c.06,0,0-.14-.08-.09A.75.75,0,0,1,4,7.27.37.37,0,0,1,3.68,7c0-.07-.13,0-.12,0A.51.51,0,0,0,3.93,7.38Zm1,.77c.24.13.53,0,.76-.1s0-.13,0-.11a1.66,1.66,0,0,1-.54.14.45.45,0,0,1-.4-.39c0-.08-.12-.06-.11,0A.52.52,0,0,0,4.91,8.15ZM6.13,9.51c.06,0,0-.14-.08-.09-.23.17-.62,0-.56-.29,0-.07-.11-.08-.12,0C5.29,9.55,5.82,9.74,6.13,9.51ZM2.55,8.7A.68.68,0,0,0,3,9.12,1,1,0,0,0,3.5,9c.07,0,0-.14,0-.11L3.15,9c-.25.05-.39-.14-.49-.35S2.52,8.63,2.55,8.7ZM4.28,9.8a.49.49,0,0,0,.58-.21c0-.06-.05-.13-.1-.07a.36.36,0,0,1-.37.18c-.15,0-.4-.12-.41-.29s-.12-.08-.12,0C3.87,9.63,4.09,9.74,4.28,9.8Zm3,.32c0-.06,0-.13-.09-.07-.2.32-.63.15-.73-.16,0-.08-.14-.06-.12,0C6.43,10.31,7,10.54,7.24,10.12ZM4.15,8.17c0-.07-.06-.14-.1-.07a.4.4,0,0,1-.72-.17c0-.07-.14,0-.12,0C3.33,8.36,3.89,8.58,4.15,8.17ZM3,10a.53.53,0,0,0,.94.21c0-.06-.06-.13-.1-.07-.2.33-.63.15-.73-.16C3.07,9.85,3,9.87,3,10Z"/><path class="cls-2" d="M1.29,3.46a4.71,4.71,0,0,1,2.5-1.34c.27.16-.6,2-1.27,2.59C1.12,6.06.88,5.89,1.59,4.8,1.22,5,.3,6.07.05,5.89S.66,4.13,1.29,3.46Z"/><path class="cls-4" d="M7.18,2.15s0-.1.09-.11a.14.14,0,0,1,.11,0c.25.07.8.15.83.41a2.28,2.28,0,0,1-1,1.27s-.12,0-.17,0,0-.07,0-.11A2.73,2.73,0,0,1,7.18,2.15Z"/><path class="cls-4" d="M6.22,1.69a.25.25,0,0,1,.29,0,.22.22,0,0,1,0,.31.22.22,0,0,1-.33,0A.21.21,0,0,1,6.22,1.69Z"/><path class="cls-4" d="M8.71,2.11A.28.28,0,0,1,9,2.22a.24.24,0,0,1-.31.26C8.5,2.4,8.62,2.16,8.71,2.11Z"/></g></g></svg>