<svg xmlns="http://www.w3.org/2000/svg" xmlns:xlink="http://www.w3.org/1999/xlink" viewBox="0 0 150 150"><defs><style>.cls-1{fill:#82c841;}.cls-2{isolation:isolate;}.cls-3{clip-path:url(#clip-path);}.cls-4{fill:#fff;}.cls-5{fill:#ffd400;}.cls-6{fill:#293b4c;}.cls-7{mix-blend-mode:multiply;}.cls-8{fill:#f5823c;}.cls-9{fill:#9b3b4d;}.cls-10{fill:#31343a;}</style><clipPath id="clip-path"><circle class="cls-1" cx="75" cy="75" r="75"/></clipPath></defs><g class="cls-2"><g id="レイヤー_2" data-name="レイヤー 2"><g id="レイヤー_1-2" data-name="レイヤー 1"><circle class="cls-1" cx="75" cy="75" r="75"/><g class="cls-3"><path class="cls-4" d="M139.19,98.81,120.72,58.12h-5l-.06-.06-29.68.06H62.44L45.58,95.25,44,98.81a.43.43,0,0,0,0,.4.42.42,0,0,0,.36.19h94.47a.42.42,0,0,0,.35-.19A.43.43,0,0,0,139.19,98.81Z"/><path class="cls-5" d="M84.92,82.58l2.24-1.89A13.75,13.75,0,0,1,90,87l-2.88.55A11,11,0,0,0,84.92,82.58Z"/><path class="cls-5" d="M77.13,78.14l1.73-2.38a10,10,0,0,0,3,1.45,12.31,12.31,0,0,1,2.6,1.14l-1.5,2.53a8.48,8.48,0,0,0-2-.86A13,13,0,0,1,77.13,78.14Z"/><path class="cls-5" d="M75.34,68.76A9.63,9.63,0,0,0,77,73.88l-2.4,1.69a12.39,12.39,0,0,1-2.19-6.68Z"/><path class="cls-5" d="M108.07,88.91A15.16,15.16,0,0,1,110.58,83l2.4,1.69h0a12.21,12.21,0,0,0-2,4.74Z"/><path class="cls-5" d="M108.53,97.52a15,15,0,0,1-.33-6.38l2.9.46h0a12.25,12.25,0,0,0,.26,5.15Z"/><path class="cls-5" d="M91.25,96.37A15.15,15.15,0,0,0,91.57,90l-2.89.45h0a12.08,12.08,0,0,1-.26,5.15Z"/><path class="cls-5" d="M74.73,66.54a15,15,0,0,0,.33-6.39l-2.9.46h0a12.25,12.25,0,0,1-.26,5.15Z"/><path class="cls-5" d="M119.86,75.74a15.08,15.08,0,0,1,6.24-1.38l0,2.94h0a12,12,0,0,0-5,1.11Z"/><path class="cls-5" d="M117.61,76.91l1.44,2.57a19.93,19.93,0,0,0-4.36,3.21l-2.06-2.09A23.42,23.42,0,0,1,117.61,76.91Z"/><path class="cls-6" d="M119.13,35.21a19.58,19.58,0,1,0-39.15,0C80,46,98.62,73.27,99.55,73.27S119.13,46,119.13,35.21ZM99.55,42.7A7.49,7.49,0,1,1,107,35.21,7.48,7.48,0,0,1,99.55,42.7Z"/><g class="cls-7"><path class="cls-1" d="M16.63,130.14c.82,1.89,8.73,3,11.33,3.27a68.44,68.44,0,0,0,9.48.75c2.55-.12,16.43,1,33.74-2,2.35-.41,9.65-1.31,11.72-2.67a2.29,2.29,0,0,0-.67-4c-2.1-.83-11.75-1.72-14.45-1.74q-17.56-.13-35.11.85c-3,.17-11.89.42-14.21,1.87C17.05,127.37,16.07,128.83,16.63,130.14Z"/></g><circle class="cls-5" cx="99.74" cy="35.39" r="8.96"/><polygon class="cls-8" points="50.72 36.06 45.5 19 52.16 18.23 50.72 36.06"/><polygon class="cls-8" points="56.13 35.67 62.51 23.15 57.45 21.64 56.13 35.67"/><polygon class="cls-8" points="46.79 37.18 36.8 27.3 41.14 24.27 46.79 37.18"/><path class="cls-9" d="M63.94,125.36c-2.18.54-4.78,0-7.61-1-.73,2.69-1.33,7-.53,7.29,1.32.57,2.17-1.54,3.41-1.65s1.71,2,3.61,1.94,1.32-2.6,2.27-3.09,1.17,1.55,2.62,1c.75-.27-.14-2.57-1.49-5.23A17.36,17.36,0,0,1,63.94,125.36Z"/><path class="cls-6" d="M83.71,71.16c-5.09,2-11.53-.67-15.07,2C74.17,81,83,85.3,90.41,82c6-2.69,10.3-9,7.19-20.71C90.6,63.63,91.06,68.3,83.71,71.16Z"/><path class="cls-4" d="M85.25,72.84c-4.47,1.74-10.83-1.32-13.93,1C74.9,80.48,83.51,83.48,89.5,81c5.32-2.23,8.61-7.43,7.06-15.18C91.07,68,91.69,70.33,85.25,72.84Z"/><path class="cls-9" d="M29.41,114.52a16.49,16.49,0,0,1-5.35-6.42l-1,.38c-1.43.56-4.15,2.08-3.86,3.29.22.88,2.34.32,2.76,1.49s-2.23,2.25-1.43,3.59,2.69.11,3.85.66.34,2.23,1.74,2.93c.65.32,3.08-1.44,4.93-4.84A17.22,17.22,0,0,1,29.41,114.52Z"/><path class="cls-6" d="M80,68.82c-2.12-9.6-5.58-17.36-8.66-21.61-9.92-13.71-23.62-7.5-28.53-3.68-10.31,8-6.5,18.68-6.06,26-6.32,7.92-13,18.66-13.92,26.94-.83,7.8.52,13.47,6.62,18,4.83,3.62,9.63,3.38,15.87,5.45,6.89,2.29,13.8,6.59,18.66,5.39,7.07-1.75,13.27-7.7,16.83-27A73.37,73.37,0,0,0,80,68.82Z"/><path class="cls-6" d="M31.48,69.46c-5.68-2.09-7.09-6.93-11.86-9.07C13,69.47,19.21,79,25.85,81.86s14.4,1,22.14-7.66C43.94,69.08,38.65,72.08,31.48,69.46Z"/><path class="cls-4" d="M30.39,72.28c-5-1.83-6.18-5.08-10.38-7-3.61,4.93.29,13.1,6.14,15.62s12.7,1.27,19.52-6.39C42.11,70,36.72,74.6,30.39,72.28Z"/><path class="cls-4" d="M75.93,71.67a31.29,31.29,0,0,0-1.08-12.86C70.8,47.39,65,44.47,62.79,45c-2,.44-2.16,5.14-1.16,9.38-.28.17-.55.34-.81.53a9,9,0,0,0-2.89,3.79A18.17,18.17,0,0,0,50.4,49.8a4.49,4.49,0,0,0-5.91,1.6c-4.5,7.14,1,14.38-.17,19.39S36.67,80.7,31.44,90.27c-2.25,4.12-5.67,13.62-2.19,19.75s10.76,6.24,17,8.47c4.78,1.7,12.18,5.49,16.46,4.65,4.61-.91,12.27-8.67,15.11-24.3C79.18,91.44,80.7,82.13,75.93,71.67Z"/><path class="cls-10" d="M67.72,52.08a3.18,3.18,0,0,0-2.83-2c-1.84,0-2.19,2.08-2.17,3.53,0,.54.86.57.85,0,0-1,.08-2.75,1.44-2.72a2.28,2.28,0,0,1,1.89,1.33c.2.51,1,.33.82-.19Z"/><path class="cls-10" d="M51.17,56.47A3.23,3.23,0,0,0,48.56,55c-1.59.12-1.86,2.05-1.9,3.29,0,.52.83.7.85.17,0-.82.07-2.62,1.25-2.64a2.44,2.44,0,0,1,1.73,1.08c.32.44,1,0,.68-.47Z"/><path class="cls-8" d="M66.7,53.28a8.35,8.35,0,0,0-5.88,1.59c-1.62,1.23-3.6,3.86-3,5.53s2.66,2.33,4.16,2.44,4.16-.46,4.79-2.24a13.16,13.16,0,0,0-5-1.44C62.52,58.59,66.78,54.11,66.7,53.28Z"/></g></g></g></g></svg>